<?xml version="1.0" encoding="utf-8"?>
<!-- Generator: Adobe Illustrator 25.1.0, SVG Export Plug-In . SVG Version: 6.00 Build 0)  -->
<svg version="1.1" id="Слой_1" xmlns="http://www.w3.org/2000/svg" xmlns:xlink="http://www.w3.org/1999/xlink" x="0px" y="0px"
	 viewBox="0 0 600 300" style="enable-background:new 0 0 600 300;" xml:space="preserve">
<style type="text/css">
	.st0{fill:none;}
	.st1{fill:#FFCE00;}
	.st2{fill:#FFD369;}
	.st3{fill:url(#SVGID_1_);}
	.st4{clip-path:url(#SVGID_3_);fill:url(#SVGID_4_);}
	.st5{opacity:0.51;clip-path:url(#SVGID_3_);}
	.st6{fill:#FFFFFF;}
</style>
<pattern  width="28.8" height="28.8" patternUnits="userSpaceOnUse" id="_x31_0_dpi_30_x25_" viewBox="2.2 -31 28.8 28.8" style="overflow:visible;">
	<g>
		<rect x="2.2" y="-31" class="st0" width="28.8" height="28.8"/>
		<g>
			<path class="st1" d="M31,0c1.2,0,2.2-1,2.2-2.2c0-1.2-1-2.2-2.2-2.2c-1.2,0-2.2,1-2.2,2.2C28.8-1,29.8,0,31,0z"/>
			<path class="st1" d="M16.6,0c1.2,0,2.2-1,2.2-2.2c0-1.2-1-2.2-2.2-2.2c-1.2,0-2.2,1-2.2,2.2C14.4-1,15.4,0,16.6,0z"/>
			<path class="st1" d="M31-14.4c1.2,0,2.2-1,2.2-2.2c0-1.2-1-2.2-2.2-2.2c-1.2,0-2.2,1-2.2,2.2C28.8-15.4,29.8-14.4,31-14.4z"/>
			<path class="st1" d="M16.6-14.4c1.2,0,2.2-1,2.2-2.2c0-1.2-1-2.2-2.2-2.2c-1.2,0-2.2,1-2.2,2.2C14.4-15.4,15.4-14.4,16.6-14.4z"
				/>
			<path class="st1" d="M9.4-7.2c1.2,0,2.2-1,2.2-2.2c0-1.2-1-2.2-2.2-2.2c-1.2,0-2.2,1-2.2,2.2C7.2-8.2,8.2-7.2,9.4-7.2z"/>
			<path class="st1" d="M23.8-7.2c1.2,0,2.2-1,2.2-2.2c0-1.2-1-2.2-2.2-2.2c-1.2,0-2.2,1-2.2,2.2C21.6-8.2,22.6-7.2,23.8-7.2z"/>
			<path class="st1" d="M9.4-21.6c1.2,0,2.2-1,2.2-2.2c0-1.2-1-2.2-2.2-2.2c-1.2,0-2.2,1-2.2,2.2C7.2-22.6,8.2-21.6,9.4-21.6z"/>
			<path class="st1" d="M23.8-21.6c1.2,0,2.2-1,2.2-2.2c0-1.2-1-2.2-2.2-2.2c-1.2,0-2.2,1-2.2,2.2C21.6-22.6,22.6-21.6,23.8-21.6z"
				/>
		</g>
		<g>
			<path class="st1" d="M2.2,0c1.2,0,2.2-1,2.2-2.2c0-1.2-1-2.2-2.2-2.2C1-4.3,0-3.4,0-2.2C0-1,1,0,2.2,0z"/>
			<path class="st1" d="M2.2-14.4c1.2,0,2.2-1,2.2-2.2c0-1.2-1-2.2-2.2-2.2c-1.2,0-2.2,1-2.2,2.2C0-15.4,1-14.4,2.2-14.4z"/>
		</g>
		<g>
			<path class="st1" d="M31-28.8c1.2,0,2.2-1,2.2-2.2c0-1.2-1-2.2-2.2-2.2c-1.2,0-2.2,1-2.2,2.2C28.8-29.8,29.8-28.8,31-28.8z"/>
			<path class="st1" d="M16.6-28.8c1.2,0,2.2-1,2.2-2.2c0-1.2-1-2.2-2.2-2.2c-1.2,0-2.2,1-2.2,2.2C14.4-29.8,15.4-28.8,16.6-28.8z"
				/>
		</g>
		<g>
			<path class="st1" d="M2.2-28.8c1.2,0,2.2-1,2.2-2.2c0-1.2-1-2.2-2.2-2.2C1-33.1,0-32.2,0-31C0-29.8,1-28.8,2.2-28.8z"/>
		</g>
	</g>
</pattern>
<rect y="0" class="st2" width="600" height="300"/>
<g>
	<pattern  id="SVGID_1_" xlink:href="#_x31_0_dpi_30_x25_" patternTransform="matrix(1 0 0 1 5.9988 0)">
	</pattern>
	<rect y="0" class="st3" width="600" height="300"/>
	<g>
		<defs>
			<rect id="SVGID_2_" y="0" width="600" height="300"/>
		</defs>
		<clipPath id="SVGID_3_">
			<use xlink:href="#SVGID_2_"  style="overflow:visible;"/>
		</clipPath>
		
			<radialGradient id="SVGID_4_" cx="225" cy="150" r="245.5136" gradientTransform="matrix(1.3333 0 0 0.6615 0 50.7701)" gradientUnits="userSpaceOnUse">
			<stop  offset="0" style="stop-color:#EFBA0D"/>
			<stop  offset="1" style="stop-color:#EFBA0D;stop-opacity:0"/>
		</radialGradient>
		<ellipse class="st4" cx="300" cy="150" rx="330.9" ry="164.3"/>
		<g class="st5">
			<g>
				<polygon class="st6" points="-19.7,16.5 135.7,75.9 -21.6,21.7 				"/>
			</g>
			<g>
				<polygon class="st6" points="-23.2,41.3 108.1,79.7 -24,43.9 				"/>
			</g>
			<g>
				<polygon class="st6" points="-30,121.7 105.2,132.1 -30.3,127.2 				"/>
			</g>
			<g>
				<polygon class="st6" points="-45.8,176.2 104.4,157.7 -45,181.7 				"/>
			</g>
			<g>
				<polygon class="st6" points="-10.8,198.4 106.6,172.4 -10.2,201.1 				"/>
			</g>
			<g>
				<polygon class="st6" points="-23.4,255.7 119.7,195.9 -22.3,258.3 				"/>
			</g>
			<g>
				<polygon class="st6" points="32.5,302.1 95,267.9 35.3,306.8 				"/>
			</g>
			<g>
				<polygon class="st6" points="198.5,310.9 238.3,232.4 201,312.1 				"/>
			</g>
			<g>
				<polygon class="st6" points="330.1,306.3 320.5,259.7 335.5,304.8 				"/>
			</g>
			<g>
				<polygon class="st6" points="368.1,315.4 334.3,233 373.2,313.1 				"/>
			</g>
			<g>
				<polygon class="st6" points="474.1,311.2 423.7,252.6 478.1,307.5 				"/>
			</g>
			<g>
				<polygon class="st6" points="598.5,309 472.5,226.4 601.5,304.3 				"/>
			</g>
			<g>
				<polygon class="st6" points="598.8,237.6 543,207.3 601.2,232.7 				"/>
			</g>
			<g>
				<polygon class="st6" points="633,190.2 525.6,168.3 633.5,187.4 				"/>
			</g>
			<g>
				<polygon class="st6" points="627.6,116.3 532.1,120.6 627.2,110.7 				"/>
			</g>
			<g>
				<polygon class="st6" points="637.4,-3.1 485.6,65 636.3,-5.6 				"/>
			</g>
			<g>
				<polygon class="st6" points="601.4,-13.4 490.7,47.5 598.6,-18.2 				"/>
			</g>
			<g>
				<polygon class="st6" points="405.3,-17.3 385.9,45.3 400,-18.7 				"/>
			</g>
			<g>
				<polygon class="st6" points="297.1,-20.5 308.8,34.4 294.4,-19.8 				"/>
			</g>
			<g>
				<polygon class="st6" points="280.9,-17.3 292.1,21.3 275.7,-15.4 				"/>
			</g>
			<g>
				<polygon class="st6" points="147.1,-16.1 204.1,45.3 143.2,-12.2 				"/>
			</g>
		</g>
	</g>
</g>
</svg>
