<?xml version="1.0" encoding="utf-8"?>
<!-- Generator: Adobe Illustrator 25.1.0, SVG Export Plug-In . SVG Version: 6.00 Build 0)  -->
<svg version="1.1" id="Слой_1" xmlns="http://www.w3.org/2000/svg" xmlns:xlink="http://www.w3.org/1999/xlink" x="0px" y="0px"
	 viewBox="0 0 300 300" style="enable-background:new 0 0 300 300;" xml:space="preserve">
<style type="text/css">
	.st0{opacity:0.66;fill:none;stroke:#CBCFD3;stroke-width:0.1775;stroke-miterlimit:10;}
	.st1{display:none;fill:none;stroke:#CBCFD3;stroke-width:0.1775;stroke-miterlimit:10;}
	.st2{display:none;fill:none;stroke:#2AB7FF;stroke-width:0.1775;stroke-miterlimit:10;}
	.st3{opacity:0.66;fill:none;stroke:#CBCFD3;stroke-width:0.3551;stroke-miterlimit:10;}
	.st4{opacity:0.66;fill:none;stroke:#CBCFD3;stroke-width:0.1332;stroke-miterlimit:10;}
	.st5{opacity:0.66;fill:none;stroke:#CBCFD3;stroke-width:0.7101;stroke-miterlimit:9.9998;}
	.st6{opacity:0.66;fill:none;stroke:#CBCFD3;stroke-width:1.7754;stroke-linecap:round;stroke-miterlimit:10;}
	.st7{display:none;fill:none;}
	.st8{fill:#CBCFD3;}
</style>
<path class="st0" d="M279.7,100.5c-2.2,0.7-4.5,1.4-6.7,2.1l-3.1-8.9c2.2-0.9,4.3-1.7,6.5-2.6C277.7,94.2,278.8,97.3,279.7,100.5"/>
<path class="st0" d="M258.1,56.2c-3.5,2.2-3.5,2.2-5.9,3.8c-7-10-7.3-10.4-12.5-16.2c1.7-1.6,3.4-3.2,5.1-4.7
	C249.8,44.3,254.2,50,258.1,56.2"/>
<path class="st1" d="M-112.7,274.8c2.7-1.4,5.5-2.8,8.2-4.3l1.7,3c-2.7,1.5-5.4,3-8.1,4.4L-112.7,274.8"/>
<path class="st2" d="M-122.6,216.4l1.6-0.3c4.6,17,6.9,25.6,16.3,43.6l-1.4,0.7C-113.8,244.6-117.7,236.6-122.6,216.4"/>
<polyline class="st2" points="-102.6,269.5 -101.2,268.8 -99.6,271.8 -101,272.5 -102.6,269.5 "/>
<path class="st2" d="M-45.4,255.2l2.5-1.5c1.9,2.8,4.3,6.5,6.3,9.2l-2.3,1.7C-40.9,261.8-43.6,258.1-45.4,255.2"/>
<path class="st2" d="M-99.6,289.5c1.6-1,3.7-2.2,5.2-3.2c2.5,3.7,5.7,8.6,8.3,12.2c-1.5,1.1-3.5,2.5-4.9,3.6
	C-93.6,298.4-97.2,293.4-99.6,289.5"/>
<path class="st2" d="M-19,36.7L-19,36.7c-3-2.5-7.4-6.4-9.7-8.4C-25.5,31.1-22.3,33.9-19,36.7"/>
<path class="st2" d="M327.2,85.1c-3.5,1.1-7.3,2.3-7.3,2.3l-4-11.5c2.4-1,4.8-1.9,7.1-2.9L327.2,85.1"/>
<path class="st2" d="M18.9-23c1.9,3.4,3.8,6.9,5.6,10.3C22.7-16.1,20.8-19.5,18.9-23"/>
<path class="st2" d="M80.1-29.4l0.2,1.5c-14.1,2.9-14.4,3-21.8,5.5L58-23.8C71.6-27.9,72.1-28,80.1-29.4"/>
<path class="st0" d="M291.3,29.3l-1.8,1.2c-9.7-13.9-13.4-19.1-29.2-33.6l1.4-1.7C275.1,7.7,279.5,12.1,291.3,29.3"/>
<polyline class="st0" points="245.5,-0.7 243.5,1.6 239.2,-1.9 241.1,-4.4 245.5,-0.7 "/>
<path class="st3" d="M125.4,97.1c-3,9.1-5.2,15.9-6.3,19.2c-4.1-1.3-8.3-2.1-12.7-2.4c0.1-1.7,0.1-1.9,0.2-4.2l-3-0.1
	c0-1.7,0-13.1-0.1-16C113.3,93.7,119.2,95.4,125.4,97.1 M62.6,87c5.6,10.3,9.8,17.9,15.8,29.1C74.8,109.4,69.1,98.9,62.6,87
	 M78.4,116.1c2.6-1.4,2.9-1.5,8-3.5c-4.9-14.3-8.5-24.7-10.8-31.3c4.6-1.6,9.3-2.8,14.3-3.6c0.6,3.7,2,12.1,2.8,17l4.8-0.6
	c0.4,4.3,1,11.3,1.8,20.1c-1.1,0.1-2.2,0.2-3.3,0.4c-5.8,0.9-11.1,2.8-16,5.5c-0.7-1.3-1.4-2.5-2.1-3.8L78.4,116.1"/>
<path class="st3" d="M102.5,93c0,2.9,0.1,14.4,0.1,16l-3,0.1c0.1,1.4,0.2,2.8,0.3,4.2c-0.5,0-1,0.1-1.5,0.1
	c-0.8-8.8-1.4-15.8-1.8-20.1C98.3,93.2,100.7,93,102.5,93"/>
<path class="st4" d="M31.4,177.5c9.2-3.4,19.2-7.1,29.7-11.1c-0.7-2.1-1.5-5-2.1-7.2c1.9-0.4,3.8-0.9,5.7-1.3
	c1.2,5.6,3.4,10.8,6.2,15.5l-31.8,20C36,188.5,33.4,183.2,31.4,177.5"/>
<path class="st3" d="M96.8,204.6c-1.7,9.4-3.5,18.9-4.3,23.1c-21.4-4-40.5-16.1-53.4-33.4c0.1-0.1,29.9-22.5,30-22.6
	c7.6,10.2,18.9,17.1,31.5,19.2c-0.7,4.7-1.5,9.4-2.2,14.1L96.8,204.6"/>
<path class="st4" d="M172.1,131.7c-1.5,0.5-3.1,0.9-4.6,1.4l-2.1-6.1c1.5-0.6,3-1.2,4.5-1.8C170.7,127.4,171.5,129.5,172.1,131.7"/>
<path class="st4" d="M169.8,132.4c-2.3,0.7-5.2,1.6-9.7,3c-5.1,1.6-7.5,2.3-12.6,3.8l-1.1-3.2l-0.9,0.3l-0.4-1.1
	c8.4-3.3,14.9-5.8,22.6-8.8L169.8,132.4"/>
<path class="st4" d="M163.6,160.5c-9.9-1.2-18.4-2.2-22.6-2.8c0.3-2.7,0.4-5.5,0.3-8.3c5.6-0.3,13.2-0.6,22.7-1.1
	C164.1,155.8,164.1,156.1,163.6,160.5"/>
<path class="st4" d="M164.3,150.4c-5.6,0.3-12.7,0.6-22.7,1.1c0-1-0.1-1.9-0.2-2.9c1.3-0.1,8.9-1,9.5-1c-0.9-6.1-1-6.6-2.2-10.6
	c4-1.2,8.6-2.6,12.6-3.8C163,139.7,163.9,143.3,164.3,150.4"/>
<path class="st4" d="M129.1,116.3c-1,1.4-1,1.4-2.5,3.4c-2-1.4-4-2.7-6.2-3.8c0.7-1.2,1.3-2.5,2-3.7
	C124.5,113.4,127.1,115,129.1,116.3"/>
<path class="st4" d="M125.3,82.4c-1.8,5.5-3,9.3-5.3,16.4l0,0C121.9,92.7,123.5,88,125.3,82.4L125.3,82.4"/>
<path class="st4" d="M102.6,78.8c0,5.6,0.1,11.4,0.1,17.2c-1.8,0.1-4.2,0.1-6,0.3c-0.6-6.1-0.9-10.2-1.6-17.2
	C97.6,78.9,100.1,78.8,102.6,78.8"/>
<path class="st4" d="M31.6,130.6c7.1,2,12,3.4,21.9,6.2c-1.6,6.3-2.3,9.2-2.5,17c-7.9,0-15.9-0.1-22.7-0.1
	C28.4,145.7,29.5,138,31.6,130.6"/>
<path class="st4" d="M161,165.4c-0.6-0.1-1.4-0.3-2-0.4l0.9-5c0.6,0.1,1.4,0.2,2,0.3L161,165.4"/>
<path class="st4" d="M137.9,218.4c-3-4.8-6-9.6-8.9-14.4c5.9-4,6-4.1,8.9-6.6c0.4,0.5,0.9,1.1,1.3,1.5c4.5-4.2,11.4-10.7,17.3-22.2
	c-0.5-0.3-1.3-0.6-1.8-0.9c2.9-6.4,3-6.6,4.2-10.4c5.9,1.8,12.4,3.9,16.2,5C168.9,190.4,155.7,207.5,137.9,218.4"/>
<path class="st4" d="M140.2,199.6c-0.4-0.5-0.9-1.1-1.3-1.5c4.9-4.6,11.1-10.4,16.8-21.6c0.5,0.3,1.3,0.6,1.8,0.9
	C154.1,183.5,149.9,191.1,140.2,199.6"/>
<path class="st4" d="M105,107.6c-0.1,2.3-0.1,2.5-0.2,4.2c-0.9,0-1.8-0.1-2.8-0.1c0-1.4,0-2.8,0-4.2L105,107.6"/>
<path class="st4" d="M102.5,107.6c0,2.4,0,2.4,0,4.2c-0.9,0-1.9,0-2.8,0.1c-0.2-2.5-0.2-2.5-0.3-4.2L102.5,107.6"/>
<path class="st4" d="M56.7,154.4c-2.4,0.1-4.8,0.1-7.2,0.2c0.2-7,0.2-9.7,2.4-18.2c4.2,1.2,8.3,2.3,12.5,3.5
	c-1.5,5.2-2.2,10.8-1.8,16.5c-1.6,0.1-4.4,0.3-5.8,0.4L56.7,154.4"/>
<path class="st4" d="M128.7,221.2c-2-5.3-4.1-10.5-6.1-15.8l2.7-1.1c2.3,5.2,4.5,10.4,6.8,15.5L128.7,221.2"/>
<path class="st4" d="M121.7,207.3c3.6,10.6,3.6,10.6,5.5,16.1c-4,1.3-8.2,2.4-12.4,3.2c-2-11.2-4.1-22.4-6.1-33.6
	c5.3-1.2,5.9-1.3,9.7-2.7c2.7,6.8,2.7,6.8,6.2,16L121.7,207.3"/>
<path class="st4" d="M125.7,222.3c-1.8-5.4-3.6-10.7-5.5-16.1l2.8-1c2,5.3,4.1,10.5,6.1,15.8C128.1,221.5,126.9,221.9,125.7,222.3"
	/>
<path class="st4" d="M159.4,170.7c-5.7-1.8-10.7-3.4-19.8-6.2c0.4-1.4,0.8-2.9,1.2-4.3c2.9,0.6,10.6,2.3,20.3,4.4
	C160.6,166.3,160,168.8,159.4,170.7"/>
<path class="st4" d="M159.4,167.3c5.1,1.3,9.9,2.6,14.4,3.8c-0.3,1.3-0.7,2.6-1.1,3.8c-4.6-1.4-8.7-2.7-16.2-5
	c0.5-1.9,1.2-4.3,1.6-6.2c0.6,0.1,1.4,0.3,2,0.4L159.4,167.3"/>
<path class="st4" d="M144.2,121.8c-1.1,0.8-2.2,1.6-3.2,2.4c-1.1-1.3-2.5-3.1-3.6-4.4c1-0.9,2-1.8,3-2.7
	C141.5,118.5,143.1,120.3,144.2,121.8"/>
<path class="st4" d="M146.4,97.3c-3.3,4.2-6.3,7.9-6.3,7.9c5.5,4.7,5.6,4.8,8.2,7.6c-3.3,3-4,3.6-7.4,6.8l-2.4-2.5
	c-1.6,1.6-1.9,1.9-2.8,2.9c-1.9-1.7-4.6-4-6.7-5.6c3.5-4.8,8.2-11.3,14.1-19.6L146.4,97.3"/>
<path class="st4" d="M131.2,113.4c-0.8,1.2-1.7,2.3-2.5,3.5c-2-1.3-4.6-2.9-6.7-4.1c0.7-1.3,1.3-2.6,2-3.8
	C126.2,110.3,129.1,112,131.2,113.4"/>
<path class="st4" d="M136.8,118.2c-1.8,1.8-1.8,1.8-3,3.1c-1.8-1.6-4.3-3.7-6.2-5.2c0.8-1.2,1.7-2.3,2.5-3.5
	C132.2,114.2,134.9,116.5,136.8,118.2"/>
<path class="st4" d="M140.8,117.6c-1,0.9-2,1.8-3,2.7l-2.2-2.3c0.9-1,1.9-1.9,2.8-2.9L140.8,117.6"/>
<path class="st4" d="M66.8,86.5c6.5,11.9,12.2,22.4,15.8,29.1l-0.5,0.3c-5.5-10-11-19.7-16.1-28.9C66.3,86.8,66.6,86.7,66.8,86.5"/>
<path class="st4" d="M88.6,225.3c2.1-11.1,4.2-22.6,4.3-23.1l1.7,0.3c-1.7,10.7-2.9,18.5-3.7,23.2C90.1,225.5,89.3,225.4,88.6,225.3
	"/>
<path class="st4" d="M175.2,162.6c-4.9-0.7-9.9-1.4-14.8-2l0.2-1.4c6.5,0.8,11.7,1.4,14.8,1.8C175.4,161.5,175.3,162.1,175.2,162.6"
	/>
<path class="st4" d="M174.2,168.3c-6.2-1.3-7.6-1.6-14.6-3.1l0.9-5.2c5,0.7,10.4,1.4,14.8,2C175,164.1,174.7,166.2,174.2,168.3"/>
<path class="st4" d="M173.5,171.4c-4.5-1.2-8.5-2.2-14.4-3.8l0.8-3.2c2.7,0.6,7.7,1.7,14.6,3.1C174.1,168.8,173.8,170.1,173.5,171.4
	"/>
<path class="st4" d="M29.1,167.5c3.6-0.8,14.4-3.2,30.9-6.9c0.6,2.2,1.4,5.1,2.1,7.2c-8,3-17.8,6.7-29.7,11.1
	C31.1,175.1,30,171.4,29.1,167.5"/>
<path class="st4" d="M50.1,153.1c2.4-0.1,4.8-0.1,7.2-0.2l0.1,2.3c-3.4,0.2-3.4,0.2-7.2,0.5L50.1,153.1"/>
<path class="st4" d="M164.4,114.2c-2.4,1.5-2.4,1.5-4.1,2.6c-4.8-6.9-5-7.2-8.6-11.2c1.2-1.1,2.4-2.2,3.5-3.3
	C158.6,106.1,161.7,110,164.4,114.2"/>
<path class="st4" d="M156.8,104.1c-2.1,1.9-2.1,1.9-3.5,3.3c-5.9-6-5.9-6-9.3-8.7c1-1.3,2.3-2.8,3-3.8
	C150.4,97.7,153.8,100.8,156.8,104.1"/>
<path class="st4" d="M32,129.5c6.9,2.2,11.9,3.8,21.6,6.9l-0.6,2c-9.1-2.6-14.1-4-21.9-6.2C31.5,131.3,31.8,130.4,32,129.5"/>
<polyline class="st4" points="149.4,138.4 148.4,138.7 147.4,135.5 148.3,135.1 149.4,138.4 "/>
<path class="st4" d="M152,147.7c-5,0.5-5,0.5-9.5,1c0-0.4-0.1-0.8-0.2-1.3c2.8-0.4,5.7-0.8,8.5-1.1c-0.5-2.7-1.3-6.3-2-9l1-0.3
	C151.2,142.6,151.5,143.5,152,147.7"/>
<path class="st3" d="M118.2,112.5c-1.3,3.8-2.5,7.6-3.8,11.4l-2.5-0.7c0.6-2.2,1.3-5.2,1.9-7.4c-3-0.7-3.1-0.7-7.8-1.2
	c-0.2,2.3-0.4,5.3-0.6,7.6h-0.7c0.3-4.9,0.3-5,0.7-11.9C109.9,110.3,114.2,111.1,118.2,112.5 M95.2,110.7c1.1-0.2,2.2-0.3,3.3-0.4
	c0.4,4,0.7,7.9,1,11.9c-7.1,0.7-11.2,2.8-14.6,4.5c-1.9-3.5-3.9-7-5.8-10.4C84,113.5,89.4,111.6,95.2,110.7"/>
<path class="st4" d="M100,110.5c0.4,7,0.4,7,0.7,11.9l-1.1,0.1c-0.3-4-0.7-7.9-1-11.9C99,110.6,99.5,110.6,100,110.5"/>
<path class="st3" d="M67.3,176.8l2.2-1.6c-0.7-1-1.6-2.2-2.2-3.2l-2.3,1.4c-2.9-4.7-5-9.9-6.2-15.5c5.1-1.1,7.1-1.6,11.7-2.6
	c5.7,22.1,23,27.4,30.2,28.7c-0.6,4-1.2,8-1.9,12C86.2,193.9,74.9,186.9,67.3,176.8"/>
<path class="st4" d="M143.5,150.5l-2.8,0.1l-0.2-2.8l2.8-0.3C143.4,148.6,143.5,149.5,143.5,150.5"/>
<path class="st4" d="M67.3,173.7l2.3-1.4c0.6,1,1.5,2.3,2.2,3.2l-2.2,1.6C68.8,176,68,174.9,67.3,173.7"/>
<path class="st4" d="M128.6,149.1l-1.4,0.2c-0.3-1.4-0.7-3.3-1-4.7l1.4-0.4C127.9,145.6,128.3,147.6,128.6,149.1"/>
<path class="st4" d="M104.8,110.5c-0.4,6.9-0.4,7-0.7,11.9H102c0-1,0-11.9,0-11.9C102.9,110.5,103.9,110.5,104.8,110.5"/>
<path class="st4" d="M102.4,110.5c0,6.6,0,11.9,0,11.9l-2.1,0.1c-0.2-4-0.5-7.9-0.7-11.9C100.6,110.5,101.5,110.5,102.4,110.5"/>
<path class="st4" d="M141.4,165l-1-0.3c0.3-1.3,0.8-3,1.1-4.3l1,0.2C142.3,162.1,141.9,163.5,141.4,165"/>
<path class="st4" d="M112.2,115.7c-0.6,2.2-1.3,5.2-1.9,7.4c-3.7-0.8-3.9-0.8-6.5-1c0.2-2.3,0.4-5.3,0.6-7.6
	C109.1,114.9,109.3,114.9,112.2,115.7"/>
<path class="st4" d="M142,148c-7.5,0.8-7.5,0.8-14.7,1.5l-0.1-0.8c7.5-1,7.5-1,14.7-1.9L142,148"/>
<path class="st4" d="M143.3,147.9l-2.8,0.3l-0.1-1.2l2.8-0.4C143.2,147.1,143.3,147.5,143.3,147.9"/>
<path class="st4" d="M143.6,7.7c0,1-0.1,1.2-0.2,2.6c-12.1-3-13.2-3.2-31.2-5.2c-0.1-1.4-0.1-1.7-0.2-2.6
	C124.6,3.5,125.7,3.7,143.6,7.7 M96.8,1.9c0.2,1,0.2,1.2,0.4,2.6L83.7,5.2c-0.3-1.4-0.3-1.7-0.5-2.6L96.8,1.9"/>
<path class="st4" d="M242.4,156h-0.5c0-4.1-0.5-9.6-0.7-13.7c-1.4,0.2-3.2,0.5-4.5,0.7c-1-7.9-2.8-18.4-4.5-26.2
	c2-0.7,2.2-0.7,4.9-1.7C241.3,134.9,241.5,137.2,242.4,156 M250.7,154.7c-0.7,0.2-0.9,0.3-2,0.5c-0.4-32.5-9.2-54.8-15-69.5
	c1-0.7,1.2-0.9,1.7-1.4C248.6,114.2,249.8,136.7,250.7,154.7"/>
<path class="st4" d="M24.3,228.3l0.7-0.6c-7.8-8.9-12-13.8-18.5-25.2c2.3-1.3,2.8-1.5,5.6-3.1l2.9,5c-1.1,0.7-2.5,1.5-3.6,2.2
	c1.8,2.6,4.1,6.1,5.9,8.7c1-0.7,2.4-1.7,3.4-2.5c3.4,4.2,8.2,9.7,11.9,13.7c-2.5,2.4-4.2,4.1-5.2,5.1L24.3,228.3"/>
<path class="st4" d="M4.8,29.4l0.7,0.7L-3,38.4L-3.4,38c-11.5,13.2-12.5,14.2-19.1,24.1l0.4,0.3c-3.2,5.3-7.5,12.4-10.4,17.9
	c0.9,0.5,1.2,0.7,2.4,1.4c-5.9,12.8-10.5,22.9-14.8,41.2l-0.8-0.3c-1.3,7-2.8,16.5-3.6,23.6c-0.5-0.1-1.2-0.2-1.7-0.3
	c-0.2,4.5-0.6,10.6-0.6,15.1c0.5,0.1,1.2,0.2,1.7,0.2l0.3,10c-1.5-0.1-1.5-0.1-2.6-0.3C-52.6,147.6-54,85.4,4.8,29.4"/>
<path class="st4" d="M92.5,76.1c0.2,1.4,0.5,3.3,0.8,4.7c-4.9,0.8-9.7,2-14.3,3.6c-0.5-1.3-1.1-3.1-1.6-4.5
	C82.6,78.2,82.8,78.1,92.5,76.1 M66,90.1c-0.7-1.2-1.6-2.9-2.3-4.1C64.4,87.2,65.3,88.9,66,90.1"/>
<path class="st4" d="M25.8,166.5l2-0.4c0.9,3.6,2.2,8.3,3.4,11.8c1-0.4,2.4-0.9,3.5-1.3c2.1,5.7,4.7,11,7.8,16c-1.6,1-3.3,2-4.9,3
	C33,187.6,29.1,180.6,25.8,166.5"/>
<path class="st4" d="M35.8,195.7c1.5-1.1,3.1-2.3,4.6-3.4c12.9,17.3,32,29.3,53.4,33.4c-0.4,1.9-0.7,3.8-1.1,5.7
	C74.4,227.1,54.8,219.8,35.8,195.7"/>
<path class="st4" d="M16.1,193.3c-4,2.1-4.5,2.4-8.6,4.5c-6.4-12.4-8-18.3-11.2-30c11.1-2.5,21.7-4.9,26.2-5.9
	c3.2,13.7,7.2,20.7,11.9,28.9c-7.2,4.5-12.3,7.7-14.5,9L16.1,193.3 M28.2,227.5c2.6-2.6,4.6-4.6,7.6-7.6c-3.4-3.6-7.7-8.6-10.8-12.5
	c5.9-4.4,11-8.2,13.7-10.2c14.6,18.5,27.5,26,44.7,32.8c-4.7,13.5-7.2,20.6-9.2,26.2C52.5,247.9,42.9,240.9,28.2,227.5"/>
<path class="st4" d="M50.4,17c1.2,2.5,1.8,3.6,3.7,7.6l-7.7,3.9c-1.4-2.5-2.7-4.9-4.1-7.4L50.4,17 M19.5,36.3
	c1.8,2.2,3.5,4.4,5.3,6.6L24.6,43c-0.7-0.9-4.3-5.4-5.3-6.6L19.5,36.3 M16.3,39c0.8,1,3.8,4.5,5.5,6.4l-4,3.5l2.6,2.8l-3.2,3
	c7.6,7.9,7.6,7.9,16.5,17c-2.3,2.3-5.2,5.5-7.4,7.8c-11.8-10-11.8-10-27.2-23.5C4.4,49.8,4.4,49.8,16.3,39 M6.4,110.7
	c-1-0.5-2.4-1.1-3.4-1.5c5.9-12.3,6-12.5,13.9-24.1c0.9,0.7,2.2,1.6,3.1,2.3C8.7,103.4,5.6,112,1.1,125.8H1
	C2.4,121.2,4.7,115.2,6.4,110.7 M-3.6,202.5c1-0.4,2.4-0.8,3.5-1.2c-6.6-20.4-7.3-29.7-7.2-47.5c1.1,0.1,2.7,0.1,3.8,0.2
	c-0.4,14,1,21.6,3,32.2l-1.1,0.2c3.4,13.9,6.5,20.4,11.3,30.3c-1.9,1-3.8,2-5.7,2.9C1.6,214.6-1.4,207.7-3.6,202.5"/>
<path class="st4" d="M7.2,202.9c1.9-1,3.8-2,5.7-2.9l1.1,2c-1.9,1-3.7,2-5.6,3.1L7.2,202.9"/>
<path class="st4" d="M20.3,49.4c1,1.2,4.6,5.7,5.3,6.6l-2.9,2.4c-1.6-1.9-4.6-5.5-5.5-6.4L20.3,49.4"/>
<polyline class="st4" points="81.4,23.1 81.5,23.7 75.8,24.7 75.7,24.1 81.4,23.1 "/>
<path class="st4" d="M2,172.6l1.1-0.2c3.2,11.7,4.8,17.6,11.2,30l-1,0.5C8.1,192,5.4,186.5,2,172.6"/>
<polyline class="st4" points="12.3,200.2 13.3,199.7 14.4,201.8 13.5,202.3 12.3,200.2 "/>
<path class="st4" d="M188.9,126.7c-6.6,2.1-11.3,3.6-18.6,5.8c-0.7-2.2-1.4-4.4-2.3-6.5c7.3-2.9,11.5-4.6,18.1-7.3L188.9,126.7"/>
<path class="st4" d="M16.2,272.4c0.2-0.1,0.4-0.2,1-0.7c-0.2,0.2-0.4,0.4-0.6,0.5c3.7,2.3,8.6,5.6,12.4,7.7
	c-0.1,0.1-0.2,0.2-0.3,0.2C24.9,277.8,19.8,274.8,16.2,272.4"/>
<path class="st4" d="M35.2,193.6l1.7-1.1c1.3,1.9,3,4.5,4.3,6.3l-1.6,1.2C38.3,198.1,36.4,195.6,35.2,193.6"/>
<path class="st4" d="M12.1,207.5c1.1-0.7,2.5-1.5,3.6-2.2c1.7,2.5,3.9,5.9,5.7,8.4c-1,0.7-2.4,1.7-3.4,2.5
	C16.3,213.6,13.8,210.2,12.1,207.5"/>
<path class="st4" d="M36.3,192.9c1.6-1,3.3-2,4.9-3c1.3,2,2.6,4,4.1,6c-2.8,2.1-2.8,2.1-4.6,3.4C39.4,197.3,37.6,194.8,36.3,192.9"
	/>
<path class="st4" d="M22,201.6c2.2-1.3,7.3-4.5,14.5-9c1.3,1.9,3,4.6,4.4,6.5c-2.7,2-7.8,5.8-13.7,10.2C25.6,207,23.5,204,22,201.6"
	/>
<path class="st4" d="M14.7,206c3.5-2.2,5.2-3.2,9.2-5.7c1.6,2.3,3.6,5.4,5.2,7.7c-3.7,2.7-5.6,4.1-8.7,6.4
	C18.7,211.9,16.3,208.6,14.7,206"/>
<path class="st4" d="M48.6,105.5L48.6,105.5c-2.1-1.7-5.1-4.4-6.7-5.8C44.2,101.6,46.4,103.6,48.6,105.5"/>
<path class="st4" d="M-43.3,189.7l1.1-0.3c12.8,35.1,31.4,53.7,43.7,65.9l-0.8,0.8C-26.7,230.4-36.7,206-43.3,189.7 M41.8,284.1
	c0.5-1,1.3-2.3,1.8-3.3l-2.4-1.2c2.7-4.8,4.3-7.7,7.7-14c-9.6-5-11.1-6.1-22.7-14.2c-1.2,1.5-2.9,3.5-4.1,5
	c-7.6-5.8-8.2-6.5-19.2-17.2c1.1-1,2.6-2.3,3.7-3.3c3.3,3.4,8,7.7,11.5,11l1.7-1.9c25.4,20.4,43.1,27.2,68.8,33l-0.8,3.7
	c6,0.9,14,1.8,20.1,2.4c-0.6,8.5-0.9,11.8-1.3,16.5C75.8,299,55.3,290,41.8,284.1"/>
<path class="st4" d="M78.7,79.6c0.5,1.3,1.1,3.1,1.6,4.5c-4.5,1.6-8.9,3.5-13,5.7c-0.7-1.2-1.6-2.9-2.3-4.1
	C73.3,81.5,73.7,81.3,78.7,79.6"/>
<path class="st4" d="M237.7,141.5l-2.2,0.3c-1-7.8-2.8-18.2-4.4-25.9l2.2-0.7C234.8,123,236.6,133.5,237.7,141.5"/>
<path class="st4" d="M192,125.7c-2.4,0.8-5,1.6-5.1,1.6l-2.8-7.9c1.6-0.7,3.3-1.3,4.9-2L192,125.7"/>
<path class="st4" d="M175.2-7.1c0.1-0.5,0.3-1.1,0.5-1.5c36.1,17.6,52.2,35.6,68,55.5c-0.5,0.5-1.1,1.1-1.6,1.6l-1.5-2.1l0.6-0.6
	C209.9,6,175.3-7.3,175.2-7.1l-0.3,0.8l-7-3l0.2-0.8L175.2-7.1 M87.4-24c0.1,0.8,0.3,1.8,0.4,2.5L82-20.9c-0.1-0.8-0.3-1.8-0.5-2.5
	L87.4-24 M-51.1,72.9l1.1,0.6c-2.5,5.5-5.7,12.9-8,18.5l0.8,0.3c-2.2,6.4-4.6,15.1-6.4,21.7c-0.6-0.2-1.4-0.4-2-0.6
	C-61.4,95.4-58,87.9-51.1,72.9 M-66.2,197.9c2.2-0.4,4.2-0.8,6.6-1.3l2.1,6.9c-2.7,0.7-3.2,0.8-4.9,1.2
	c13.1,37.4,29.1,55.4,47.1,73.3c-0.3,0.3-0.8,0.7-1.1,0.9C-49.9,248.1-60.1,216.7-66.2,197.9 M26.2,308.1c0.2-0.4,0.5-0.8,0.7-1.2
	c28.7,13.7,51.7,15.7,66.9,17.1c0.2-1.6,0.4-3.4,0.5-4.9c4.8,0.2,11.3,0,16.1,0c0,0.9,0,2,0,2.9c4.5-0.2,10.4-0.9,14.9-1.4
	c-0.1-0.8-0.2-2-0.3-2.8l2.3-0.3c0.4,3.5,0.5,4.8,0.7,6.1C80.5,329.5,51.7,319.2,26.2,308.1"/>
<path class="st4" d="M141.6,9.2c-0.1,0.5-0.2,1.1-0.2,1.6c6.5,1.9,15,4.8,21.4,7.2l-0.2,0.8c-22.3-8.2-28.2-9.5-52.1-12.3
	c0-0.8,0-1.8-0.1-2.5C122.9,5.1,124,5.3,141.6,9.2 M95.4,3.5c0.1,0.8,0.2,1.8,0.3,2.5L82.4,6.7c-0.1-0.8-0.3-1.8-0.4-2.5L95.4,3.5"
	/>
<path class="st4" d="M222.3,68l-0.6,0.6c-12.1-14.8-28.7-35.1-65.6-52.8l0.3-0.8C173.6,23.7,197.1,35.6,222.3,68"/>
<path class="st4" d="M-49.3,186.1c2.1-0.5,2.6-0.6,4.9-1.2l1.6,4.8l0.4-0.1c12.9,35.4,31.7,54,44.1,66.4c-1.8,1.7-2.9,2.7-3.8,3.5
	C-30.7,232.1-40.4,210-49.3,186.1 M40.1,288.2c0.9-1.4,1.8-3,2.5-4.4c27.8,13.3,48.3,15.1,64.9,16.6c-0.2,2.4-0.4,3.6-0.5,4.9
	C75.3,303.6,55.8,295.1,40.1,288.2"/>
<path class="st4" d="M62.2,78.3c1.3,2.4,2.6,4.7,3.9,7.1C64.8,83,63.5,80.6,62.2,78.3"/>
<path class="st4" d="M62.5,74.3c-1.6-3.2-4.2-8.2-7.2-14c10.9-5,12.3-5.6,21.4-8.4c0.7,2.4,2.1,7.3,4.3,14.6c3.5-0.8,8.2-2,11.7-2.6
	c0.9,5.2,2,11.7,2.3,13.6c-9.8,2-10,2.1-15.2,3.8c-1.5-4.3-1.5-4.3-2.7-7.6c-9.8,3.8-10,3.9-15.1,6.7l-0.5-0.9
	c-5.8,3.4-12.3,7.3-19.6,13.9c-0.8-0.9-2-2.1-2.8-3.1C46.9,83.8,51.2,80.3,62.5,74.3"/>
<path class="st4" d="M91.3,76.1l0.2,1c-9.7,2-9.9,2-15,3.8l-0.3-1C85.4,77.1,85.8,77,91.3,76.1"/>
<polyline class="st4" points="22.6,57.1 25.1,60 21.2,63.4 18.7,60.6 22.6,57.1 "/>
<path class="st4" d="M20.3,56.2l0.6,0.8c11.8-8.7,12.7-9.4,21.4-14.3l-0.5-0.9l7.7-3.9c1.2,2.4,2.8,5.7,3.9,8.2
	c13.5-5.7,13.7-5.8,21.2-7.9c1.7,5.9,3.5,11.8,5.2,17.7c-11.8,3.8-13,4.3-21.4,8.4c-3.6-7-7.2-14.1-10.8-21.1
	c-13.8,7.7-14.3,8-25.2,16.2l-2.4-3L20.3,56.2"/>
<polyline class="st4" points="25,55.2 27.3,58.1 24.5,60.5 22.1,57.6 25,55.2 "/>
<path class="st4" d="M44.8,42.3l0.5,0.9C32.2,51,31.6,51.3,23.9,57.4l-0.6-0.8C35.3,47.7,36.1,47.2,44.8,42.3"/>
<path class="st4" d="M76.2,72.1c0.9,2.5,1.8,5.1,2.7,7.6c-9.1,3.5-9.2,3.6-13.9,6.1c-1.3-2.4-2.6-4.7-3.9-7.1
	C70.3,74.2,70.7,74.1,76.2,72.1"/>
<path class="st4" d="M78.5,79.1l0.3,1c-9,3.5-9.1,3.6-13.7,6.1l-0.5-0.9C73.1,81,73.4,80.8,78.5,79.1"/>
<polyline class="st4" points="82.7,30.7 83.2,33 77.9,33.9 77.4,31.6 82.7,30.7 "/>
<path class="st4" d="M118.6,38.8c-1.2,10.2-1.2,10.2-1.7,14.7c-3.6-0.3-8.3-0.8-11.9-1c0.1-4.7,0.1-4.7,0.3-14.8
	C109.3,38,114.6,38.3,118.6,38.8"/>
<path class="st4" d="M45,20.8c0.9,1.8,1.2,2.4,2.5,5.3l-10.8,5.4c-1.2-2.1-1.9-3.3-2.9-5.1L45,20.8 M92.6-3.1
	C92.9-2,93-1.7,93.3-0.3C43.8,6.3,17,27.3,1,39.9c-1-1.1-1-1.2-1.8-2l-5.7,5l-0.1-0.1C29,12,55.7,2.9,92.6-3.1 M-17.1,69.2l0.4,0.3
	c9.2-11,10-11.8,22.9-23.6l-0.3-0.4l3.5-2.9c1.3,1.6,1.3,1.6,3.7,4.5l-0.2,0.2c-1.3-1.5-1.3-1.5-3.4-4.2l-3.3,2.7
	c1.1,1.3,2.4,2.8,3.5,4.1C-3.7,62.2-3.9,62.4-15.4,76.7c0,0-4.4-3.4-4.6-3.5L-17.1,69.2"/>
<path class="st4" d="M14,41.6c2.1,2.6,2.1,2.6,3.4,4.2l-3.2,2.6c-1.1-1.3-2.4-2.8-3.5-4.1L14,41.6"/>
<path class="st4" d="M3.8,37.5L3.8,37.5l-8.3,8.4l-0.1-0.1L3.8,37.5 M-23.7,69.8c0.9,0.7,1.2,0.8,2.3,1.6
	c-3.3,5.2-7.3,12.3-10.3,17.7c-1.2-0.7-1.5-0.9-2.4-1.4C-31.2,82.2-27,75.1-23.7,69.8"/>
<path class="st4" d="M44.8,22.4c1.1,2.3,1.5,3.1,2.5,5.3l-1.5,0.6c-1.4-2.9-1.7-3.4-2.5-5.3L44.8,22.4"/>
<path class="st4" d="M50.8,23.5c0.8,1.6,1.8,3.8,2.6,5.5l-2.2,1l0.4,0.8l-8.1,4.1c-1.3-2.3-1.3-2.3-3.4-6.1L50.8,23.5 M16.3,44.7
	c1.5,1.8,2.9,3.6,4.4,5.4l-0.2,0.2c-0.4-0.5-1.9-2.3-4.4-5.4L16.3,44.7 M13,47.4c1.5,1.8,2.6,3,4.5,5.3c-6.2,5.3-6.2,5.3-17.2,17
	c-0.8-0.7-2-1.7-2.8-2.4l-7.1,8.8c-0.8-0.6-1.8-1.4-2.6-2C-0.8,60.1-0.6,59.8,13,47.4"/>
<path class="st4" d="M16.7,45c2.5,3.1,4,4.9,4.4,5.4l-3,2.5c-1.9-2.3-3-3.5-4.5-5.3L16.7,45"/>
<path class="st4" d="M43.7,27.7l0.5,1.2c14.3-5.6,22.2-8.7,39.1-11.6c0.3,1.7,0.8,3.9,1.1,5.6l-5.7,1L78.5,23
	c-17.9,4.4-18.2,4.5-33.7,10.9c-0.8-1.6-1.8-3.8-2.6-5.5L43.7,27.7"/>
<path class="st4" d="M36.1,26.4c1,1.8,1.7,3,2.9,5.1c-14.5,8.7-15.1,9-23.7,15.8c-2.4-3-2.4-3-3.7-4.5
	C25.4,32.5,26.2,31.9,36.1,26.4"/>
<path class="st4" d="M6.4,35.1c0.7,0.8,0.7,0.8,1.8,2l-5.6,5c-0.6-0.7-1.2-1.3-1.9-2L6.4,35.1 M13.1,42.9l0.3,0.4
	C2.6,52.7,1.7,53.8-9.5,66.8l-0.4-0.3C-0.7,55.4,0.4,54.5,13.1,42.9"/>
<path class="st4" d="M1.3,41c0.6,0.7,1.2,1.3,1.9,2l-8.3,8.2c-0.5-0.4-1.1-1-1.5-1.5c-0.1-0.1-0.3-0.3-0.4-0.4L1.3,41"/>
<path class="st4" d="M44,20.8c0.3,0.7,0.8,1.6,1.1,2.3l-1.5,0.7c-0.3-0.7-0.8-1.6-1.1-2.3L44,20.8"/>
<path class="st4" d="M33.8,22.1c0.7,1.2,1.5,2.6,2.9,5c-15,9-15.6,9.3-24.5,16.3c-1.6-2-2.9-3.5-3.7-4.5
	C22.7,28.5,23.5,27.9,33.8,22.1"/>
<path class="st4" d="M4.9,44.3C4.6,43.9,3,42.2,2.7,42l5.6-5c1.4,1.6,2.3,2.7,4.9,5.7C0.6,54.3-0.5,55.2-9.7,66.3
	c-2.3-1.8-2.3-1.8-3.3-2.7C-7.8,57.6-0.7,49.9,4.9,44.3"/>
<path class="st4" d="M-4.6,50.1L-4.6,50.1l8.2-8.3c1.1,1.2,1.8,2,2.2,2.3C0.2,49.7-7,57.4-12.2,63.4c-0.7-0.6-1.6-1.3-2.3-1.9
	C-11.5,58.1-7.7,53.4-4.6,50.1"/>
<polyline class="st4" points="-33.8,188.6 -32.4,188.3 -30.3,195.2 -31.7,195.5 -33.8,188.6 "/>
<polyline class="st4" points="-32,194.6 -30.6,194.2 -30.3,195.1 -30.5,195.2 -29.2,199 -30.3,199.3 -32,194.6 "/>
<polyline class="st4" points="-34,188.7 -33.6,188.6 -31.5,195.5 -31.9,195.6 -34,188.7 "/>
<polyline class="st4" points="-32.2,194.6 -31.8,194.5 -30.2,199.3 -30.6,199.4 -32.2,194.6 "/>
<polyline class="st4" points="-10.5,66.4 -10.2,66.6 -14.6,72.8 -14.9,72.5 -10.5,66.4 "/>
<path class="st4" d="M225.4,70.9c1.6-1.4,1.9-1.7,3.3-3l1.1,1.5c-1.2,1.1-1.4,1.3-3.4,3l5,7.4l-1.3,1l6.3,10.7l-1.8,1.2
	c-2.2-4-5.4-9.1-7.8-13l-1.1,0.9l-5.8-8.2c1.6-1.4,1.8-1.5,4-3.5L225.4,70.9 M112.3,21l-0.3,3l-2.1-0.3l-0.1,0.6
	c-6.3-0.6-14.6-1.1-20.9-1.3l-0.1-3.6C95.9,19.6,105.3,20.2,112.3,21"/>
<path class="st4" d="M102.1,25.1l0.1,3.6c-3.9,0.2-9,0.3-12.9,0.7L89,25.8C92.9,25.6,98.2,25.1,102.1,25.1"/>
<path class="st4" d="M228.4,93.8l1.5-0.8c6.5,16.5,6.6,16.8,9,26c-2.7,0.9-2.9,1-4.9,1.7c-1.2-3.9-2.6-9.1-3.9-12.9l1.3-0.6
	c-2.8-7.2-7-16.7-10.3-23.6l1.8-1.2L228.4,93.8"/>
<path class="st4" d="M159,21.9c-0.9,2.9-1,3.1-1.7,5.2c-14-5.1-21.8-7.9-37.8-10.4l-0.2,2.4l-11.1-1.2c0.1-3.5,0.1-4.4,0.2-8
	C131.5,12.6,137.2,14,159,21.9"/>
<path class="st4" d="M113.4,18L113.4,18c-4.1-0.1-9.6-0.5-13.7-0.5l0,0C103.8,17.7,109.3,17.7,113.4,18"/>
<path class="st4" d="M101.4,10.2c0.2,3.4,0.3,4.2,0.4,8h-0.1c-0.2-3.6-0.2-4.3-0.4-7.4l-12.8,0.6l-0.1-0.6L101.4,10.2"/>
<polyline class="st4" points="85.2,22.5 85.3,23.1 80.6,23.8 80.5,23.2 85.2,22.5 "/>
<path class="st4" d="M218.6,70.4c-2.2,2-2.3,2.1-4,3.5c-16.7-20.4-28.1-31.4-55.1-46.5c1.4-3.1,1.5-3.3,2.2-5
	C185.4,35.9,198.5,45.5,218.6,70.4"/>
<path class="st4" d="M166.9,26.5c-1.2,2.8-1.3,3-2.2,5l-6.7-3.3c1.3-3.3,1.3-3.4,1.9-5.1L166.9,26.5"/>
<path class="st4" d="M233.9,118.5l-2.2,0.7c-1.1-3.8-2.5-8.9-3.8-12.7l2.1-0.9C231.1,109.5,232.8,114.6,233.9,118.5"/>
<path class="st4" d="M155.2,27.5l0.8-2.3l6.6,2.9c-1.3,3.4-2.1,5.4-4.4,10.8c-15-6.2-21.1-8.8-41.3-12.4c0.5-4.7,0.6-5.5,1-9.3
	C132.4,20,140.3,21.5,155.2,27.5"/>
<path class="st4" d="M165.3,30.2c-1.5,3.4-2.4,5.3-4.9,10.6l-6.3-3.1c1.7-4.1,2.7-6.5,4.4-10.8L165.3,30.2"/>
<path class="st4" d="M230.9,71.4c-1.2,1.2-1.5,1.4-3.3,3l-1.5-2c1.6-1.5,1.9-1.7,3.3-3.1L230.9,71.4 M163.8,16.6
	c-0.2,0.6-0.5,1.5-0.7,2.1l-6.9-3c0.2-0.7,0.5-1.5,0.6-2.2L163.8,16.6 M76.7,1.4C76.8,2.1,76.9,3,77,3.7l-5.7,0.6
	C71.2,3.6,71,2.7,70.9,2L76.7,1.4"/>
<path class="st4" d="M162.5,18.4c-0.2,0.7-0.5,1.5-0.6,2.2c-22.1-8.1-27.8-9.4-51.4-12.2c0-0.7,0-1.6,0-2.3
	C134.2,8.8,140,10.2,162.5,18.4 M95.6,5.6c0.1,0.7,0.1,1.6,0.2,2.3L82.7,8.6c-0.1-0.7-0.2-1.6-0.4-2.3L95.6,5.6"/>
<path class="st4" d="M168.7,22.9c-0.2,0.7-0.6,1.6-0.8,2.3l-6.8-3c0.2-0.7,0.5-1.6,0.7-2.3L168.7,22.9 M82.7,7.9
	c0.1,0.7,0.2,1.7,0.4,2.5L77.4,11c-0.1-0.7-0.3-1.7-0.4-2.5L82.7,7.9"/>
<path class="st4" d="M161.9,20.2c-0.2,0.7-0.5,1.6-0.7,2.3c-21.8-8-27.5-9.3-50.7-12c0-0.7,0-1.7,0-2.5
	C133.9,10.7,139.7,12.1,161.9,20.2 M95.9,7.6c0.1,0.8,0.1,1.8,0.2,2.5l-12.9,0.6C83,9.9,82.9,9,82.8,8.2L95.9,7.6"/>
<path class="st4" d="M221.9,68.3c-1.4,1.4-1.7,1.6-3.3,3.1c-17.3-21.1-29-32.4-56.9-48c0.3-0.7,0.7-1.6,0.9-2.3l-7.1-3.5
	c0.2-0.6,0.5-1.5,0.7-2.1C173.3,24.2,196.7,36.1,221.9,68.3"/>
<path class="st4" d="M167.6,24.9c-0.3,0.7-0.6,1.6-0.9,2.3l-7-3.4c0.2-0.7,0.6-1.6,0.8-2.3L167.6,24.9"/>
<path class="st4" d="M121.7,28.5c-0.5,5.1-0.7,6.2-1.4,12.4c-4-0.5-9.3-0.8-13.3-1.1c0-2.8,0.1-6.4,0.1-9.2l-6.3-0.1l-0.1-3.3
	C107,27.4,115.4,28,121.7,28.5 M88,28.9l-0.1-1L88,28.9 M88,28.9l0.3,2.3L83,31.8l-0.4-2.3L88,28.9"/>
<path class="st4" d="M102.2,28.2l0.1,3.3c-3.8,0.2-8.8,0.3-12.6,0.7l-0.4-3.3C93.2,28.6,98.3,28.2,102.2,28.2"/>
<polyline class="st4" points="86.4,30.1 86.7,32.4 82.4,33.1 81.9,30.8 86.4,30.1 "/>
<path class="st4" d="M85,10.9c0.6,3.5,1,6.3,2,12.6l-2.1,0.3c-0.7-4.4-0.7-4.6-1.1-6.8h-0.9c-0.6-3.6-0.7-3.7-1-5.7L85,10.9"/>
<path class="st4" d="M83.5,17.7l-0.2-1.2l0.9-0.1c0.6,3.8,0.7,4.2,1.1,6.8l-4.7,0.7c-0.3-1.7-0.8-3.9-1.1-5.6L83.5,17.7"/>
<path class="st4" d="M84.5,7.7c0.1,0.7,0.3,1.6,0.4,2.3l-3.3,0.4c-0.1-0.7-0.3-1.6-0.5-2.3L84.5,7.7"/>
<path class="st4" d="M84.8,9.6c0.1,0.7,0.3,1.7,0.4,2.5L82,12.5c-0.1-0.7-0.3-1.7-0.5-2.5L84.8,9.6"/>
<path class="st4" d="M158,52.8c-0.6,1.1-1.3,2.6-1.9,3.7c-13.7-6.6-13.7-6.6-28.1-11c0.3-1.2,0.7-2.9,1-4.1
	C144.1,46.1,144.1,46.1,158,52.8"/>
<path class="st4" d="M160.6,84.2c-1.2,1.5-2.4,3-3.5,4.5c-7.3-5.4-11.4-8.3-20.2-12.5l-0.9,2c-3.3-1.4-7.6-3.2-11-4.3
	c0.8-2.5,1.6-5,2.4-7.5C139.3,70.8,146.7,73.8,160.6,84.2"/>
<path class="st4" d="M166.5,83.5c-0.7,0.9-1.7,2-2.5,2.9l-3.3-2.7l-0.9,1.2c-10.3-7.5-16.9-12.1-33.2-17.9c0.5-1.7,1.1-3.4,1.6-5.1
	C138.4,65.7,151,70.4,166.5,83.5"/>
<path class="st4" d="M119.3,39c-0.2,1.2-0.4,2.9-0.5,4.2l-0.7-0.1c-0.5,3.8-0.8,6.4-1.3,10.5l-1-0.1c0.6-5.2,0.6-5.2,1.7-14.7
	L119.3,39"/>
<path class="st4" d="M132.6,42.6c-0.3,1.2-0.7,2.8-1,4.1c-4.3-1-10-2.2-14.3-3c0.2-1.2,0.4-2.9,0.5-4.2
	C122.3,40.4,128.2,41.5,132.6,42.6"/>
<polyline class="st4" points="120.5,29.2 120.5,29.9 118.4,29.6 118.5,28.9 120.5,29.2 "/>
<path class="st4" d="M185.8,59.6l-0.4,0.5c-13-10.3-13.2-10.5-27-18.4l-0.4,0.9l-7.3-3.6l0.6-1.5C165.3,44.6,171,47.5,185.8,59.6"/>
<path class="st4" d="M120.6,28.8c-0.6,5.1-0.8,6.5-1.5,12.4l-1.9-0.3c0.7-6.2,0.8-7.3,1.4-12.4L120.6,28.8"/>
<path class="st4" d="M135.2,31.9c-1.2,5.3-1.5,6.4-2.9,12.1c-4.4-1-10.3-2.3-14.8-3.1c0.9-7,0.9-7.3,1.5-12.4
	C123.9,29.5,130.4,30.7,135.2,31.9"/>
<path class="st4" d="M128.3,73.8c-1.4,4.4-2.2,6.8-3.6,11.1l0,0l1.8-5.5l-4.8-1.4c0.5-1.9,1-3.8,1.5-5.7L128.3,73.8"/>
<path class="st4" d="M124.9,78.6l0.3-1L130,79l-1.8,5.5c-8.7-2.8-17.9-4.3-27.3-4.2c0-1.4,0-3.3,0-4.7
	C111.6,75.6,115.8,76.5,124.9,78.6 M92.8,75.9c0.1,1.4,0.3,3.3,0.4,4.7c-1.9,0.2-3.8,0.4-5.8,0.7c-0.1,0-0.2,0-0.2,0
	c-0.2-1.4-0.5-3.3-0.8-4.7L92.8,75.9"/>
<path class="st4" d="M102.7,75.9c0,1.4,0,3.3,0,4.7c-2.5,0-5,0.1-7.5,0.4c-0.1-1.4-0.3-3.3-0.4-4.7C97.1,76.1,100.3,75.9,102.7,75.9
	"/>
<path class="st4" d="M102.6,62.8c0,3.5,0.1,11.9,0.2,13.7c-2.4,0.1-5.6,0.2-8,0.4c-0.2-2.6-0.7-7.4-1.3-13.7
	C96.1,63.1,99.8,62.8,102.6,62.8"/>
<path class="st4" d="M125.6,78.1l-0.3,1c-10.5-2.6-14.7-2.8-24.1-3.1v-1C112.2,75.1,116.4,76,125.6,78.1 M93.2,75.4l0.1,1L87,77.2
	l-0.2-1L93.2,75.4"/>
<path class="st4" d="M102.7,75.3v1c-2.4,0.1-5.6,0.2-7.9,0.4l-0.1-1C97.1,75.6,100.3,75.3,102.7,75.3"/>
<path class="st4" d="M130.5,67.8c-0.8,2.5-1.6,5-2.4,7.5l-5.1-1.5c0.7-2.5,1.3-5.1,2-7.6L130.5,67.8"/>
<path class="st4" d="M131.8,63.7c-1,3.1-1,3.1-1.6,5.1l-5.5-1.6c0.4-1.7,0.9-3.4,1.3-5.2L131.8,63.7"/>
<path class="st4" d="M116.6,50.1c-0.4,3.4-0.7,5.2-1.3,9.8l0.6,0.1c-0.5,3.2-0.5,3.2-0.8,5.3c3.5,0.7,8.1,1.5,11.6,2.4
	c-0.7,2.5-1.3,5.1-2,7.6c-3.6-0.8-8.4-1.8-12.1-2.4c1-8,1.9-14.3,2.9-22.9L116.6,50.1"/>
<path class="st4" d="M127.5,62.4c-0.4,1.7-0.9,3.4-1.3,5.2c-3.5-0.8-8.1-1.8-11.6-2.4c0.3-1.8,0.5-3.5,0.8-5.3
	C119,60.5,123.8,61.5,127.5,62.4"/>
<path class="st4" d="M34,76.3c3.5,3.9,7.1,7.8,10.6,11.6l-2.3,2.2l-11-11.3L34,76.3"/>
<path class="st4" d="M20.3,61.2c7.2,7.9,7.2,7.9,16,17.5l-2.7,2.5c-8.9-9.2-8.9-9.2-16.5-17L20.3,61.2"/>
<path class="st4" d="M38.7,72.4c3.1,3.9,6.2,7.7,9.4,11.6L46,85.7c-5.1-6-5.1-6-9.6-11.4L38.7,72.4"/>
<path class="st4" d="M23.6,58.3c6.7,7.9,6.7,7.9,15.3,18.1l-3.2,2.8c-8.7-9.6-8.7-9.6-16-17.5L23.6,58.3"/>
<path class="st4" d="M27.4,278.4c0.6-0.7,0.6-0.8,1.1-1.3l10.2,5.3c-0.7,1-0.7,1-1,1.4L27.4,278.4"/>
<path class="st4" d="M38.1,276.6c0.6-1,1.3-2.3,1.9-3.2l2.4,1.2c-0.5,1-1.3,2.3-1.8,3.3L38.1,276.6"/>
<path class="st4" d="M28.4,277.3c0.3-0.3,0.6-0.8,0.8-1.1l10.1,5.3c-0.2,0.4-0.5,0.8-0.7,1.2L28.4,277.3"/>
<path class="st4" d="M28.9,276.5c0.5-0.7,1.2-1.7,1.6-2.4l7.4,4c0.3-0.6,0.8-1.3,1.1-1.9l2.4,1.2c-0.8,1.4-1.7,3-2.5,4.4L28.9,276.5
	"/>
<path class="st4" d="M-0.8,257.6C0,257,0,257,0.6,256.5c5.9,5,14,11.5,20.2,16.1c-0.9,0.9-0.9,0.9-1.2,1.3
	C13.4,269.1,5.2,262.7-0.8,257.6"/>
<path class="st4" d="M5.2,253.4l0.8-0.8c3.7,3.2,8.7,7.5,12.6,10.5l-0.7,0.9C14.1,260.9,8.9,256.7,5.2,253.4"/>
<path class="st4" d="M0.4,256.7c0.3-0.3,0.8-0.7,1.1-0.9c5.8,5,13.9,11.4,20.1,15.9c-0.3,0.3-0.7,0.8-0.9,1.1
	C14.4,268.1,6.3,261.7,0.4,256.7"/>
<path class="st4" d="M1.3,256.1c0.9-0.8,2-1.8,3.8-3.5c3.8,3.2,8.8,7.6,12.7,10.6c-0.4,0.5-1,1.2-1.5,1.7l6.8,4.9
	c-0.6,0.7-1.3,1.6-1.9,2.3C15.2,267.4,7.2,261.1,1.3,256.1"/>
<path class="st4" d="M12.3,150.1c3.4,0.1,3.4,0.1,5.7,0.2c0.8-9.2,1.2-14.2,3.8-23.3c5.7,1.6,6.6,1.9,13.3,3.8
	c-2.1,7.4-3.3,15.1-3.3,23.1c-7.4-0.1-13-0.1-19.5-0.2L12.3,150.1"/>
<path class="st4" d="M17.9,124.9c1.8,0.6,3.6,1.2,5.4,1.7l-1,3.2c-1.4-0.4-4.6-1.3-5.5-1.6L17.9,124.9"/>
<path class="st4" d="M4.5,122.2c7,2,14.3,4.1,14.6,4.2c-2.3,9.4-3.6,14.6-4,24.6c-5.5-0.2-9.5-0.4-15.2-0.7
	C0.8,139.3,1.3,133.2,4.5,122.2"/>
<path class="st4" d="M-1.2,137.5c1.1,0.2,2.6,0.4,3.7,0.6c0.9-4.8,2.2-11.1,3.4-15.8H6C3.4,133,1.9,139,1.4,150.5
	c-1.1-0.1-2.7-0.1-3.8-0.2C-2.1,146.3-1.7,141.3-1.2,137.5"/>
<path class="st4" d="M-3.4,146.1c-4.7-0.3-4.7-0.3-10-0.8l0.2-2.7c-6.7-0.7-6.7-0.7-10.3-1l1-8.8c13.6,2.2,17.1,2.7,23.9,3.8
	c-0.4,3.8-1,8.9-1.2,12.7c-1.1-0.1-2.6-0.1-3.7-0.2L-3.4,146.1"/>
<path class="st4" d="M17.3,126c2.1,0.6,4.1,1.2,5.5,1.6c-2.2,8.9-3.4,13.8-3.8,23.3c-1.9-0.1-3.8-0.2-5.7-0.2
	C14.1,141,14.6,135.7,17.3,126"/>
<path class="st4" d="M23.3,224.3c-3.6,3.1-8.1,6.8-13.4,11.3c-9.9-12.2-10.5-13-17.7-25c10-5.3,13.1-7,16.4-8.8
	c6.4,10.4,9.6,15.6,18.5,25.2l-0.7,0.6L23.3,224.3"/>
<path class="st4" d="M-15.4,192.3c10.9-3.6,14.2-4.8,17.7-6c2.1,5.2,5.1,12.1,7.6,17.2c-3.3,1.7-6.4,3.3-16.6,8.4
	C-9.5,206.2-13.1,198.3-15.4,192.3"/>
<path class="st4" d="M-7.5,210.3c10.1-5.1,13.3-6.7,16.6-8.4l1.2,2.2c-3.3,1.8-6.4,3.5-16.4,8.8L-7.5,210.3"/>
<path class="st4" d="M-12.6,212.5c1.4-0.7,3.3-1.7,4.7-2.4C0.6,224,0.9,224.5,10,235.4l-0.2,0.2l3.6,4c-1.1,1-2.6,2.3-3.7,3.3
	C0.3,232.1-4.9,226.2-12.6,212.5"/>
<path class="st4" d="M-8.2,210.8l2-1.1c8.4,13.7,8.7,14.2,17.6,24.9L9.7,236C-0.3,223.7-0.9,223-8.2,210.8"/>
<polyline class="st4" points="-8,210.6 -6,209.6 -4.6,212.1 -6.6,213.1 -8,210.6 "/>
<path class="st4" d="M-32.8,188.4c1.2-0.3,2.9-0.6,4.1-0.9l2,6.7c-1.2,0.3-2.8,0.8-4,1.1L-32.8,188.4"/>
<path class="st4" d="M-30.9,194.6c1.2-0.3,2.8-0.8,4-1.1l0.3,0.9c-1.2,0.3-2.8,0.8-4,1.1L-30.9,194.6"/>
<path class="st4" d="M-20.3,192.3c-4.3,1.3-4.8,1.4-8,2.3l-0.3-0.9c4.4-1.2,7.7-2.2,15.3-4.4l1.4,4.2c-2.2,0.7-5.1,1.7-7.2,2.4
	L-20.3,192.3"/>
<path class="st4" d="M-13.8,144.3c6.2,0.5,6.2,0.5,10,0.8l-0.2,3c-4.7-0.2-4.7-0.2-10.1-0.5L-13.8,144.3"/>
<path class="st4" d="M239.2,179.3c-1.3-0.2-3.1-0.4-4.5-0.6c2.3-16,2.6-18,2.7-31c1.4-0.1,3.2-0.2,4.6-0.3
	C241.5,165.2,241.5,166.3,239.2,179.3"/>
<path class="st4" d="M241.9,151.2c-1.4,0.1-3.2,0.3-4.6,0.3c-0.2-4-0.3-9.3-0.7-13.3c1.4-0.2,3.2-0.5,4.5-0.7
	C241.4,141.6,241.8,147.1,241.9,151.2"/>
<path class="st4" d="M237,148.8l2.2-0.1c-0.5,17.3-0.6,18.3-2.7,31c-3.4-0.5-6.7-0.9-13.7-2l1.6-10.9c1.6,0.1,3.7,0.3,5.3,0.4
	c1.2-16.5,1.2-17.5,0.3-30.6c1.9-0.3,4.4-0.6,6.3-0.9C236.5,139.7,236.9,144.9,237,148.8"/>
<path class="st4" d="M237.9,151.5l-2.2,0.1c-0.2-3.9-0.3-9.2-0.6-13.1l2.2-0.3C237.4,142.2,237.9,147.5,237.9,151.5"/>
<path class="st4" d="M77.2,275.7L78,272c5.8,0.9,13.7,1.8,19.6,2.3l-0.3,3.8C91.2,277.5,83.2,276.6,77.2,275.7"/>
<path class="st4" d="M178,67.3l-1.5,1.8l2.3,2.1l-1.2,1.3l-4.1-3.7c0.8-1,1.8-2.3,2.6-3.2L178,67.3"/>
<path class="st4" d="M184.5,59.8c-3.7,4.5-4.1,5-7.3,8.7l-1.8-1.6c4-5,4.5-5.5,7.1-8.9L184.5,59.8"/>
<polyline class="st4" points="184.5,59.8 183.8,60.5 181.8,58.8 182.4,58 184.5,59.8 "/>
<path class="st4" d="M178.3,67.4c-0.8,1-1.8,2.3-2.6,3.2c-11.5-9.2-11.8-9.3-24-16.4c0.6-1.1,1.3-2.6,1.9-3.7
	C166.7,58.1,167,58.3,178.3,67.4"/>
<path class="st4" d="M184.7,59.7c-3.6,4.5-4,5-7.1,8.9c-11.9-9.5-12.1-9.6-24.8-16.9c2.9-5.8,3.2-6.4,5.1-10.3
	C172.1,49.7,172.4,49.8,184.7,59.7"/>
<path class="st4" d="M184.9,59.7l-0.6,0.8c-12.9-10.2-13.1-10.4-26.8-18.3l0.4-0.9C172.2,49.6,172.4,49.8,184.9,59.7"/>
<path class="st4" d="M-26.6,140.7c1.7,0.2,4,0.4,5.7,0.6l-0.2,2.9c-1.7-0.1-4-0.3-5.7-0.5L-26.6,140.7"/>
<path class="st4" d="M-22.3,141.2c4.2,0.4,6.2,0.6,10.3,1l-0.2,2.7c-5.8-0.5-6.7-0.5-10.3-0.8L-22.3,141.2"/>
<path class="st4" d="M-27.6,142.6c1.7,0.1,4,0.3,5.7,0.5l-0.2,3.4c5.4,0.3,6.2,0.4,10.3,0.6l-0.1,5.9c-6.4-0.1-9.3-0.1-16-0.3
	L-27.6,142.6"/>
<path class="st4" d="M-22.5,143.6c5.1,0.4,6.2,0.5,10.3,0.8l-0.2,3.2c-6.7-0.4-6.7-0.4-10.3-0.6L-22.5,143.6"/>
<path class="st4" d="M195.7,225.7l-3.6-2.7c2-2.8,4.7-6.4,6.6-9.2l3.8,2.4C200.5,219,197.8,222.9,195.7,225.7"/>
<path class="st4" d="M16.5,272.2c0.2-0.2,0.4-0.4,0.6-0.5c3.7,2.3,8.6,5.5,12.4,7.7c-0.2,0.2-0.4,0.4-0.6,0.6
	C25.2,277.6,20.1,274.7,16.5,272.2"/>
<path class="st4" d="M16.9,271.8c0.7-0.7,0.7-0.7,1.2-1.3c3.7,2.3,8.5,5.5,12.2,7.6c-0.8,1-0.8,1-1.1,1.3
	C25.6,277.2,20.6,274.3,16.9,271.8"/>
<path class="st4" d="M107.3,295.8c-0.1-4.6-0.1-8-0.4-16.5l6.6-0.4c-1.1-14.7-1.4-18.5-2.2-27.5l-5.3,0.4c-0.2-4.8-0.4-9-0.4-10.2
	c2.9-0.3,6.9-0.5,9.8-0.9c1.4,10.5,4.6,35,6.6,53.7C117.5,294.9,111.7,295.6,107.3,295.8"/>
<path class="st4" d="M106.7,294c0-0.9,0-2,0-2.9c4.4-0.4,10.3-0.8,14.6-1.3c0.1,0.8,0.2,2,0.3,2.8
	C117.2,293.1,111.2,293.8,106.7,294"/>
<path class="st4" d="M107.3,279.9c-0.4-14.7-0.6-18.7-1-27.6l5.3-0.4c0.8,9.1,1.1,13.2,2.2,27.5L107.3,279.9"/>
<path class="st4" d="M48.3,105.2L48.3,105.2c-2.1-1.8-4.2-3.6-6.3-5.5C44.1,101.5,46.2,103.4,48.3,105.2"/>
<path class="st4" d="M48.1,104.2l0.4,0.3c-1.6,1.8-3.1,3.7-4.5,5.6l-0.4-0.3C44.9,108.2,46.7,105.9,48.1,104.2"/>
<path class="st4" d="M194.2,85.4l-1.9,1.5c-8.5-10.4-9-11.1-15.5-17.2l1.6-1.8C188.1,77.5,188.7,78.1,194.2,85.4"/>
<path class="st4" d="M202.2,79.1c-4.4,3.6-5,4-8.8,7.1c-8.7-10.6-9.2-11.3-15.8-17.6c4.2-4.8,4.7-5.3,7.5-8.5
	C195.5,70.7,196.2,71.3,202.2,79.1"/>
<path class="st4" d="M202.8,79l-1.2,1c-9.4-11.5-10-12.2-17.1-19l0.6-0.7l-2.6-2.4l0.4-0.5C194.2,68.2,194.8,68.9,202.8,79"/>
<polyline class="st4" points="179.9,69.4 178.4,71.2 176,69.1 177.6,67.3 179.9,69.4 "/>
<path class="st4" d="M186.7,61.8c-3.6,4.1-4.2,4.9-7.5,8.5l-2.4-2.2c3.9-4.6,4.6-5.4,7.3-8.7L186.7,61.8"/>
<polyline class="st4" points="186.7,61.8 186,62.5 183.5,60.2 184.1,59.4 186.7,61.8 "/>
<path class="st4" d="M221.2,191c-5.2-1.5-5.2-1.5-15.9-4.6c3.6-13.2,3.8-13.9,5.1-23.7c9.8,0.9,10.2,1,16.5,1.5
	C224.5,179.5,224.3,180.4,221.2,191"/>
<path class="st4" d="M115,228.7c-0.3-1.8-0.6-3.6-1-5.3c4.3-0.8,8.4-1.8,12.4-3.2c1.1,3.4,1.1,3.4,1.7,5.1
	C124.3,226.4,119,227.8,115,228.7"/>
<path class="st4" d="M126.8,225.7c-0.6-1.7-1.2-3.4-1.7-5.1c1.2-0.4,2.3-0.8,3.5-1.3c0.3,0.7,0.6,1.6,0.9,2.3
	c0.3,0.8,0.8,1.9,1.1,2.8L126.8,225.7"/>
<path class="st4" d="M34,272.3c2.2-3.5,3.8-6.1,7.6-12.4c-3.1-2-7.4-4.5-10.5-6.5c-3.6,4.9-5.6,7.7-8.7,11.7l-2.2-1.5
	c1.7-2.1,3.1-4,5.9-7.6l-4.2-3c1.2-1.5,2.9-3.5,4.1-5c12.4,8.6,13.1,9.2,22.7,14.2c-3.4,6.3-5,9.2-7.7,14L34,272.3"/>
<path class="st4" d="M31.6,273.1c0.6-0.9,1.4-2.2,2-3.1l7.2,3.8c-0.6,1-1.3,2.3-1.9,3.2L31.6,273.1"/>
<path class="st4" d="M30.6,274.5c0.4-0.5,0.8-1.3,1.2-1.8l7.3,3.9c-0.3,0.6-0.8,1.3-1.1,1.9L30.6,274.5"/>
<path class="st4" d="M16.1,262.8l0.7-0.9l4.5,3.3c0.5-0.6,1.2-1.4,1.6-2.1l2.2,1.5c-0.7,0.9-1.6,2.1-2.3,3L16.1,262.8"/>
<path class="st4" d="M15,264.2c0.4-0.5,1-1.2,1.5-1.7l6.7,4.8c-0.4,0.5-1,1.2-1.4,1.7L15,264.2"/>
<path class="st4" d="M22.8,265c2.5-3.3,4.3-5.8,8.7-11.7c3.1,2,7.2,4.7,10.5,6.5c-3.2,5.2-4.9,8.1-7.6,12.4
	C30.9,270,26.2,267.2,22.8,265"/>
<path class="st4" d="M21.4,266.7c0.7-0.9,1.6-2.1,2.3-3c3.4,2.2,8,5.2,11.5,7.2c-0.6,0.9-1.4,2.2-2,3.1
	C29.6,271.9,24.8,269.1,21.4,266.7"/>
<polyline class="st4" points="186.9,179.1 186.4,179 187.8,174.4 188.2,174.5 186.9,179.1 "/>
<path class="st4" d="M191.5,180.6c-1.7-0.5-3.4-1-5.1-1.5l1.4-4.7c1,0.2,4.2,1.1,5.1,1.3L191.5,180.6"/>
<path class="st4" d="M187.9,179.4c-6.6-2-11.1-3.4-18.2-5.6c0.4-1.3,0.8-2.5,1.1-3.8c6,1.6,11.2,2.9,18.4,4.8L187.9,179.4"/>
<polyline class="st4" points="82,26.8 82.7,30.3 77.3,31.3 76.5,27.8 82,26.8 "/>
<path class="st4" d="M81.4,23.3c0.2,1.2,0.5,2.9,0.8,4.1l-5.5,1c-0.3-1.2-0.6-2.9-0.9-4.1L81.4,23.3"/>
<polyline class="st4" points="82.6,30 82.8,30.9 77.4,31.9 77.2,31 82.6,30 "/>
<polyline class="st4" points="90.5,25.7 90.9,29.3 85.5,29.9 85,26.3 90.5,25.7 "/>
<path class="st4" d="M90.1,22.2c0.2,1.2,0.4,2.9,0.5,4.2L85,27c-0.2-1.2-0.5-2.9-0.7-4.1L90.1,22.2"/>
<polyline class="st4" points="85.8,26.2 86.3,29.8 81.9,30.5 81.2,26.9 85.8,26.2 "/>
<path class="st4" d="M85.2,22.7c0.2,1.2,0.5,2.9,0.7,4.1l-4.6,0.7c-0.2-1.2-0.5-2.9-0.8-4.1L85.2,22.7"/>
<polyline class="st4" points="90.9,28.9 91,29.9 85.6,30.5 85.5,29.5 90.9,28.9 "/>
<polyline class="st4" points="86.3,29.4 86.4,30.4 82,31.1 81.8,30.1 86.3,29.4 "/>
<path class="st4" d="M156.4,87.8l-1.3,1.7c-7.2-5.3-11.1-8.2-19.8-12.2l0.9-2C144.2,79.4,148.7,81.7,156.4,87.8"/>
<path class="st4" d="M66.7,84.6c0.7,1.2,1.6,2.9,2.3,4.1c-5.8,3.2-11.2,7.1-16,11.5c-1-1-2.2-2.4-3.2-3.5C57.8,90,58,89.9,66.7,84.6
	"/>
<path class="st4" d="M66.1,85.1c0.7,1.2,1.6,2.9,2.3,4.1c-0.3,0.1-0.5,0.3-0.8,0.4c-0.7-1.2-1.6-2.9-2.3-4.1L66.1,85.1"/>
<polyline class="st4" points="65.8,84.6 66.3,85.6 65.5,86 65,85.1 65.8,84.6 "/>
<path class="st4" d="M87.9,228.5c0.4-1.9,0.7-3.8,1.1-5.7c0.8,0.1,1.5,0.3,2.3,0.4c-0.3,1.9-0.6,3.8-0.9,5.7L87.9,228.5"/>
<path class="st4" d="M190.2,171.9l-0.5-0.1l1.3-7.6c-6.6-0.9-11.7-1.6-18.9-2.5c0.1-0.5,0.1-1.1,0.2-1.6c7.8,0.9,12.3,1.4,19.4,2.2
	C191.4,165.2,190.8,169.1,190.2,171.9"/>
<path class="st4" d="M193.6,172.7c-1.7-0.4-3.5-0.7-5.2-1.1c0.5-2.9,1.2-6.8,1.6-9.7c1.6,0.2,4.5,0.5,5.3,0.6
	C194.8,165.6,194.2,169.7,193.6,172.7"/>
<path class="st4" d="M190,171.7c-7-1.4-11.1-2.3-18.6-3.9c0.4-2.1,0.8-4.2,1.1-6.3c6.4,0.9,11.5,1.6,18.9,2.5L190,171.7"/>
<polyline class="st4" points="188,175.3 187.5,175.1 188.7,170.4 189.1,170.5 188,175.3 "/>
<path class="st4" d="M192.7,176.4c-1.7-0.4-3.4-0.9-5.1-1.3l1.1-4.7c2,0.4,4.2,0.9,5.2,1.1L192.7,176.4"/>
<path class="st4" d="M-25.4,103c0.9,0.4,2.1,0.8,3,1.2c-2,6-4.4,14.2-6,20.3c-0.9-0.2-2.2-0.5-3.1-0.8
	C-29.8,117.4-27.4,109.1-25.4,103"/>
<path class="st4" d="M-19.1,89.2c0.9,0.5,2,1.1,2.9,1.5l-0.4,0.8c-0.9-0.5-2-1.1-2.9-1.5L-19.1,89.2"/>
<path class="st4" d="M205.1,121.6c-4.6,1.5-8.1,2.7-14.7,4.8l-2.9-8.3c5.9-2.4,9.3-3.8,14.3-5.9L205.1,121.6"/>
<path class="st4" d="M213,165.3c-4.7-0.5-9.4-0.9-19-2l-1-0.1l0.1-0.7c3.8,0.4,11.6,1.2,20,1.9L213,165.3"/>
<path class="st4" d="M118.7,42.7c-0.6,4.3-0.8,5.9-1.4,10.5l-0.7-0.1c0.6-4.4,0.9-6.6,1.3-10.5L118.7,42.7"/>
<path class="st4" d="M134.4,55.5c-0.8,2.5-1.7,5.3-2.9,9.4l-5.8-1.7c0.9-3.4,1.4-5.4,2.4-9.5L134.4,55.5"/>
<path class="st4" d="M117.6,51.5c-0.4,2.7-0.8,5.5-1.4,9.8l-0.6-0.1c0.5-3.7,0.8-5.8,1.3-9.8L117.6,51.5"/>
<path class="st4" d="M129.6,54.1c-0.8,3.2-1.4,5.4-2.4,9.5c-3.6-0.8-8.5-1.9-12.1-2.5c0.6-4.6,1.1-7.8,1.4-9.8
	C120.4,52.1,125.7,53.1,129.6,54.1"/>
<path class="st4" d="M178.3,71.5c-1.9,2.2-3.9,4.4-8.2,9.1l-3.7-3.3c2.7-3.2,4.5-5.4,7.8-9.5L178.3,71.5"/>
<path class="st4" d="M176.4,69.5c-2,2.5-3.8,4.6-7.8,9.5c-10.5-8.3-10.7-8.5-21.8-14.9c1.9-3.6,3.3-6.4,5.6-11
	C165.1,60.6,165.4,60.7,176.4,69.5"/>
<path class="st4" d="M208.3,186.6c-3.1-1-8.9-2.7-19.1-5.9l0.4-1.2l0.9,0.3c6.6,2,11.5,3.5,18.2,5.4L208.3,186.6"/>
<path class="st4" d="M208.2,187c-4-1.2-9.1-2.7-18.2-5.4l1.4-5c1-4.6,2.2-10.7,2.9-15.3c6.6,0.7,12,1.3,19,2
	C211.1,176.8,211,177.6,208.2,187"/>
<polyline class="st4" points="191.9,180.7 191,180.4 192.4,175.5 193.3,175.7 191.9,180.7 "/>
<path class="st4" d="M194.1,172.8l-0.9-0.2c0.5-3,1.3-7.1,1.7-10.2l1,0.1C195.3,165.6,194.7,169.8,194.1,172.8"/>
<path class="st4" d="M192.9,177.4l1.2-5c0.5-3.1,1.3-7.2,1.7-10.3C195.1,166.7,193.9,172.9,192.9,177.4"/>
<polyline class="st4" points="193.1,176.6 192.2,176.3 193.3,171.4 194.3,171.5 193.1,176.6 "/>
<path class="st4" d="M213,225.8c-1-0.6-2.2-1.4-3.2-2l4-6.5c-2.9-1.6-5.9-3.2-10.8-6l4.2-7.7c5.6,2.7,9.3,4.5,14.6,6.9
	C219.3,215.2,215.9,221.3,213,225.8"/>
<path class="st4" d="M221,213c-4.4-2-7.5-3.5-14.6-6.9c2.1-4.7,4.9-10.9,6.8-15.7c5.9,2,9.8,3.3,15.4,5.1
	C226.4,200.8,223.4,207.8,221,213"/>
<path class="st4" d="M210.9,223.3c-2.9-1.8-5.7-3.5-10.5-6.6l3.7-6c3.5,2,6.9,3.8,10.8,6L210.9,223.3"/>
<path class="st4" d="M192.5,245.5c-2.2-2.2-4.8-4.7-8.8-8.7c3.8-4.1,8.9-9.7,12.4-14c3.1,2.3,6.3,4.7,9.9,7.4
	C202.1,234.9,196.8,241.1,192.5,245.5"/>
<path class="st4" d="M206.4,233.8c-0.9-0.7-2.1-1.6-3-2.2c2.2-3.1,5.3-7.2,7.4-10.4c1,0.6,2.2,1.4,3.2,2
	C211.7,226.3,208.7,230.7,206.4,233.8"/>
<path class="st4" d="M204.4,232.3c-2.1-1.6-5.4-4-9.9-7.4c2-2.9,4.9-6.6,6.8-9.5c3.6,2.3,6.7,4.2,10.5,6.6
	C209.6,225,206.8,229.3,204.4,232.3"/>
<path class="st4" d="M249.8,164.2c-1.9,0.3-3.7,0.4-6.3,0.5l0.1-6.7c3.4-0.3,4.7-0.5,6.3-0.8L249.8,164.2 M222.5,64.5
	c-0.5,0.5-1.2,1.1-1.7,1.5l-5.2-7.6c0.5-0.5,1.2-1.1,1.6-1.6L222.5,64.5"/>
<path class="st4" d="M248.6,155.1c-1.6,0.3-2.9,0.5-6.3,0.8c-0.9-17.4-1.3-22-5.3-40.8c2.3-0.8,2.6-0.9,4.1-1.5
	c-5.3-17.5-5.4-17.9-9.3-26.7c0.6-0.4,1.3-0.8,1.9-1.2C239.5,100.4,248.3,122.6,248.6,155.1"/>
<path class="st4" d="M223.6,73.9c-1.5,1.3-1.8,1.5-3.5,2.8l-5-7.4c1.9-1.7,2.1-1.9,3.4-3L223.6,73.9"/>
<path class="st4" d="M241.9,116.9c-1.8,0.7-2.1,0.8-4.1,1.5c-5.2-17.4-5.2-17.4-9-26c2.1-1.2,2.4-1.4,3.8-2.2
	C239.3,107.1,239.4,107.4,241.9,116.9"/>
<path class="st4" d="M10.8,256.6c-0.6,0.6-1.3,1.3-1.9,1.9c-12.3-12.3-30.9-30.8-43.7-65.9l0.2-0.1c6.6,16.2,14,34.6,35.5,57.8
	c2.3-1.9,4.5-3.8,9.3-7.9c11,10.8,11.6,11.4,19.2,17.2c-2,2.5-3.9,4.8-6.2,7.4C19.4,263.9,14.4,259.9,10.8,256.6"/>
<polyline class="st4" points="-30.7,195.1 -30.4,195.1 -29.1,198.9 -29.3,198.9 -30.7,195.1 "/>
<path class="st4" d="M5.8,252.8c0.6-0.6,1.4-1.3,1.9-1.9c3.7,3.2,8.6,7.4,12.4,10.4c-0.5,0.6-1.2,1.4-1.7,2
	C14.6,260.3,9.5,256.1,5.8,252.8"/>
<path class="st4" d="M-33.1,194c1.2-0.4,2.8-0.8,4-1.2c6.4,15.9,6.6,16.2,11.2,24.5c3.2-1.6,3.8-1.9,7.3-3.7
	C-2.9,226,1,232.3,11.7,243.8c-3.3,2.8-5.8,5.1-9.3,7.9C-9,238.6-22.1,223.7-33.1,194"/>
<path class="st4" d="M-30.8,195.2c1.2-0.3,2.8-0.8,4-1.1l1.3,3.7c-1.2,0.4-2.8,0.9-4,1.2L-30.8,195.2"/>
<path class="st4" d="M-27.8,194.3c3.7-1.1,4.2-1.2,8-2.3l1.2,3.5c-4,1.3-4.8,1.5-7.9,2.5L-27.8,194.3"/>
<path class="st4" d="M18.1,261c1.8-2.1,3.3-3.9,6.2-7.4l4.2,3c-1.9,2.5-3.7,4.9-5.9,7.6L18.1,261"/>
<path class="st4" d="M17,262.2c0.5-0.6,1.2-1.4,1.7-2l4.4,3.2c-0.5,0.6-1.2,1.5-1.6,2.1L17,262.2"/>
<path class="st4" d="M231.9,138.3c-1.6,0.2-3.7,0.5-5.3,0.7c0.8,16.1,0.8,17.1-0.3,29.5c-6.2-0.5-6.2-0.5-16.6-1.4
	c0.9-13,1.4-19.5-0.6-33.9c8.8-1.5,14.2-2.5,21.8-4L231.9,138.3"/>
<path class="st4" d="M195.1,165c-1.1-0.1-2.6-0.3-3.8-0.4c0.8-10.6,1.1-15.9-0.5-27.7c1.1-0.2,2.6-0.4,3.7-0.6
	C195.8,147.4,196.4,153,195.1,165"/>
<path class="st4" d="M109.3,36.4c-0.2,10.1-0.2,10.1-0.3,14.8l-5.2-0.1c-0.1-4-0.1-4-0.3-14.8L109.3,36.4 M91.6,37
	c1.2,11.3,1.2,11.3,1.6,14.7l-4.4,0.5c-0.4-3-0.4-3-2.1-14.7L91.6,37 M84.8,52.9c1.2,6.7,2.1,12.3,2.6,15c-3.5,0.6-8.2,1.8-11.7,2.6
	c-2.1-7.3-3.6-12.2-4.3-14.6C75.4,54.8,80.8,53.7,84.8,52.9"/>
<path class="st4" d="M102.3,37.7c0.2,10.8,0.2,10.8,0.3,14.8c-3.2,0.2-7.4,0.3-10.5,0.5c-0.4-3.4-0.4-3.4-1.6-14.7
	C94.1,38.1,98.8,37.7,102.3,37.7"/>
<path class="st4" d="M108.4,30.5c0,2.8-0.1,6.4-0.1,9.2l-5.9-0.1c-0.1-2.8-0.2-6.4-0.3-9.2L108.4,30.5 M89.5,31.1
	c0.3,2.8,0.7,6.4,1,9.2l-5,0.6c-0.4-2.7-1-6.4-1.4-9.1L89.5,31.1"/>
<path class="st4" d="M86.6,31.5c0.4,2.7,1,6.4,1.4,9.1l-4.1,0.6c-0.5-2.7-1.1-6.4-1.6-9.1L86.6,31.5"/>
<path class="st4" d="M102.5,50c0.1,3.9,0.1,8.1,0.2,15.3c-2.8,0.1-6.5,0.2-9.2,0.5c-0.3-2.9-0.8-8.4-1.6-15.2
	C95.1,50.3,99.3,50,102.5,50"/>
<polyline class="st4" points="89.6,52.1 89.6,52.1 85.6,52.7 85.6,52.7 89.6,52.1 "/>
<path class="st4" d="M82.1,11.4c0.6,2.7,0.7,3.3,1.2,5.7C67.5,20.3,59.5,22,43.9,28.8c-1.4-3-1.6-3.5-2.5-5.3
	C56.3,17.6,64.5,14.4,82.1,11.4"/>
<path class="st4" d="M84.9,4.9c0.2,0.7,0.4,1.6,0.5,2.3l-4.3,0.7c0.2,0.7,0.4,1.6,0.5,2.3C65,13.6,56.7,15.4,40.3,22.5
	c-0.9-1.9-1.2-2.5-2.1-4.3C55.3,11.5,63.1,8.4,84.9,4.9"/>
<path class="st4" d="M82.6,11.8c0.6,3.3,0.6,3.3,1,5.7l-4.1,0.6c-0.8-3.7-0.8-3.7-1.2-5.7L82.6,11.8"/>
<polyline class="st4" points="83.5,16.9 83.7,18.1 79.7,18.8 79.4,17.5 83.5,16.9 "/>
<path class="st4" d="M81.8,8.1c0.1,0.7,0.3,1.6,0.5,2.3L78.1,11c-0.2-0.7-0.4-1.6-0.5-2.3L81.8,8.1"/>
<path class="st4" d="M82.2,10c0.1,0.7,0.3,1.7,0.5,2.5l-4.2,0.6c-0.2-0.7-0.4-1.7-0.5-2.5L82.2,10"/>
<path class="st4" d="M26.8,152.4c1.1,0,2.6-0.1,3.7-0.1c0.1,4.1,0.4,8.2,1.1,12.3c0.3,1.6,0.5,3.1,0.9,4.7c-1.1,0.2-2.5,0.6-3.6,0.8
	C27.1,160.3,27,159.7,26.8,152.4"/>
<path class="st4" d="M179.4,105.8c-5.8,3.8-10,6.5-16.4,10.6c-2.7-4.2-5.8-8.2-9.1-11.8c1.8-1.6,5.4-5,10.1-9.4
	c-2.5-2.5-5.8-5.8-8.4-8.2c1.3-1.6,2.2-2.6,3.7-4.4C168.4,91.2,171.4,94.1,179.4,105.8"/>
<path class="st4" d="M179.8,105.8l-1.3,0.8c-6.7-9.6-9.2-13.2-20.1-23.1l1-1.2C168.7,91,171.7,94,179.8,105.8"/>
<path class="st4" d="M160.8,85.2c-1.2,1.5-2.5,2.9-3.7,4.4l-3-2.5c2.1-2.7,2.1-2.7,3.5-4.5L160.8,85.2"/>
<polyline class="st4" points="161.4,84.5 160.4,85.7 157.2,83 158.1,81.8 161.4,84.5 "/>
<path class="st4" d="M156,89.3l1.4-1.6c2.6,2.4,6,5.6,8.4,8.2c-3,2.8-5.1,4.8-10.1,9.4c-3.1-3.3-6.4-6.4-9.9-9.2
	c3.2-4,4.1-5.2,7.2-9.2L156,89.3"/>
<polyline class="st4" points="157.5,89 156.1,90.7 153.2,88.2 154.5,86.5 157.5,89 "/>
<path class="st4" d="M-31.3,140.2c1.7,0.2,3.9,0.4,5.6,0.6l-0.2,3c-1.7-0.2-3.9-0.4-5.6-0.5L-31.3,140.2"/>
<path class="st4" d="M-31.5,142.2c1.7,0.2,3.9,0.4,5.6,0.5l-0.3,10.2c-1.7,0-3.9-0.1-5.6-0.2L-31.5,142.2"/>
<path class="st4" d="M7.1,109.4c1,0.5,2.4,1.1,3.4,1.5c-1.8,4.5-4,10.5-5.4,15.1c-1.1-0.3-2.5-0.7-3.6-1C3,120.2,5.2,114,7.1,109.4"
	/>
<path class="st4" d="M2.2,122.3c1.1,0.3,2.5,0.7,3.6,1c-1.2,4.7-2.6,11.1-3.4,15.8c-1.1-0.2-2.6-0.4-3.7-0.6
	C-0.4,133.7,1,127.2,2.2,122.3"/>
<path class="st4" d="M-18.7,116c13.3,4,16.2,4.9,23.2,6.9c-1.2,4.9-2.6,11.4-3.5,16.3c-5.9-0.9-11.5-1.7-23.9-3.8
	C-21.7,129.6-20.1,121.8-18.7,116"/>
<path class="st4" d="M83.8,254.3c-0.6,2.9-1,5-1.7,8.6c-5.1-1.2-12-2.9-17-4.4c1.3-3.9,4.1-12,9.4-27.8c3.9,1.1,9.2,2.5,13.2,3.4
	c-0.5,2.7-1,5.5-1.6,8.2c4.4,0.7,10.4,1.4,14.8,1.8c-0.4,6.8-0.4,6.8-0.7,12.1C95.3,255.8,88.7,255.1,83.8,254.3"/>
<path class="st4" d="M80.5,260.7c0.4-1.9,0.9-4.6,1.7-8.6c4.9,0.7,11.5,1.6,16.5,1.9c-0.2,3.8-0.3,5.4-0.5,8.8
	C92.9,262.3,85.8,261.5,80.5,260.7"/>
<path class="st4" d="M84.1,243.6c0.8-4.4,0.8-4.4,1.6-8.2c4.1,0.6,9.6,1.3,13.7,1.6c-0.1,1.5-0.2,4.7-0.4,8.4
	C94.5,244.9,88.5,244.3,84.1,243.6"/>
<path class="st4" d="M113.3,2c0.1,0.6,0.1,0.6,0.2,1.2C109,3,102.9,2.6,98.4,2.7c-0.2-0.8-0.2-0.8-0.3-1.2
	C102.7,1.7,108.8,1.7,113.3,2"/>
<path class="st4" d="M113.5,2.9c0.1,0.9,0.1,1.2,0.2,2.6c-4.5-0.2-10.5-0.5-15-0.5c-0.2-1.4-0.2-1.6-0.4-2.6
	C102.9,2.5,108.9,2.5,113.5,2.9"/>
<path class="st4" d="M113.6,5c0,0.8,0,1.8,0.1,2.5C109.3,7.3,103.4,7,98.9,7c-0.1-0.8-0.2-1.8-0.3-2.5C103.1,4.7,109.1,4.7,113.6,5"
	/>
<path class="st4" d="M113.6,10.7c-0.1,3.2-0.1,4.1-0.2,8c-4.1-0.1-9.6-0.5-13.7-0.5c-0.2-3.5-0.2-4.4-0.4-8
	C103.5,10.4,109.3,10.4,113.6,10.7"/>
<path class="st4" d="M113.7,7.2c0,0.7,0,1.6,0,2.3C109.3,9.3,103.5,9,99.1,9C99,8.3,99,7.4,98.9,6.7C103.3,6.8,109.2,6.8,113.7,7.2"
	/>
<path class="st4" d="M113.6,9.1c0,0.7,0,1.7,0,2.5c-4.3-0.2-10.1-0.5-14.4-0.5c-0.1-0.8-0.1-1.8-0.2-2.5
	C103.4,8.7,109.3,8.8,113.6,9.1"/>
<path class="st4" d="M25,83.6c6.5,5.7,13,11.3,19.6,17c-1.5,1.8-3.5,4.2-4.9,6.1c1.7,1.3,5.1,3.7,6.7,4.9
	c-13-9.5-19.9-14.6-27.6-20.2C20.6,89,23.1,85.9,25,83.6"/>
<path class="st4" d="M20.6,91.7c-5.7-4.3-10.7-8-25.6-19.3l7-8.6c15.4,13.5,15.4,13.5,27.1,23.6c-1.9,2.3-4.5,5.4-6.2,7.8
	c-0.9-0.7-2.2-1.6-3.1-2.3L20.6,91.7"/>
<path class="st4" d="M1.7,63.5c0.8,0.7,2,1.7,2.8,2.4l-6.9,8.6c-0.9-0.7-2.1-1.6-2.9-2.2L1.7,63.5"/>
<path class="st4" d="M-4.2,71.8c15.7,12,19.2,14.6,25.6,19.4l-0.9,1.2c-5.6-4.1-10.9-8-25.8-19L-4.2,71.8"/>
<path class="st4" d="M-4.7,71.4c0.9,0.7,2.1,1.6,2.9,2.2l-1.1,1.5c-0.9-0.7-2.1-1.5-3-2.2L-4.7,71.4"/>
<path class="st4" d="M237.8,91.7c-0.1,0.2-0.4,0.5-0.5,0.6l-5.9-12c-0.5,0.6-0.7,0.7-1.7,1.5l-6.6-11.3c1.2-1.2,1.7-1.7,2-2.4
	C229.2,75.1,234.3,84.5,237.8,91.7"/>
<path class="st4" d="M236.7,91.2c-0.6,0.5-0.7,0.6-1.7,1.4l-5.8-11.9c0.9-0.8,1.1-0.9,1.7-1.5L236.7,91.2"/>
<polyline class="st4" points="225.9,85.7 224.5,86.6 218.2,75.9 219.5,74.8 225.9,85.7 "/>
<polyline class="st4" points="230.5,95.2 229,96 223.5,84.8 224.9,83.8 230.5,95.2 "/>
<path class="st4" d="M230.5,82.4c-0.5,0.4-1.3,1-1.8,1.4l-6.5-11.1c0.5-0.4,1.2-1.1,1.7-1.5L230.5,82.4"/>
<path class="st4" d="M235.3,92.4c-0.6,0.4-1.3,0.9-1.9,1.2l-5.7-11.7c0.5-0.4,1.3-1,1.8-1.4L235.3,92.4"/>
<path class="st4" d="M229.2,83.5c-1.6,1.1-1.9,1.3-3.7,2.5l-6.4-10.9c2-1.5,2.2-1.7,3.5-2.8L229.2,83.5"/>
<path class="st4" d="M233.9,93.3c-1.7,1-2,1.2-3.8,2.2l-5.6-11.4c2.1-1.4,2.3-1.6,3.7-2.5L233.9,93.3"/>
<path class="st4" d="M163.4,16.2c-0.2,0.9-0.2,1.1-0.6,2.4l-7.1-3.1c0.3-1.3,0.4-1.5,0.5-2.5L163.4,16.2"/>
<path class="st4" d="M158.6,14.1L158.6,14.1c-6.5-2.4-15.2-5.4-21.9-7.3C143.4,8.8,152.1,11.7,158.6,14.1"/>
<path class="st4" d="M158.6,13.9c-0.1,0.9-0.2,1.1-0.5,2.5c-6.4-2.3-15-5.3-21.6-7.2c0.1-1.3,0.2-1.6,0.2-2.6
	C143.4,8.6,152.2,11.5,158.6,13.9"/>
<path class="st4" d="M162.9,18.3c-0.1,0.5-0.3,1.1-0.5,1.5l-7-3.1c0.1-0.5,0.3-1.1,0.4-1.6L162.9,18.3"/>
<path class="st4" d="M-5.1,46.4l0.4,0.4c-11.7,13.4-12.4,14.2-19.1,24l-0.4-0.3C-13.8,56-13.2,55.1-5.1,46.4"/>
<path class="st4" d="M-3.8,49.4L-3.8,49.4c-2.9,3.5-7,8-9.8,11.5l-0.2-0.1C-10.8,57.4-7,52.7-3.8,49.4"/>
<path class="st4" d="M28.8,110.3c4,2.2,8.1,4.4,12.1,6.6c-2.6,4.8-4.8,9.9-6.6,15.1c-3-1-11-3.5-13.2-4.2
	C24.6,118.5,25,117.5,28.8,110.3"/>
<path class="st4" d="M21.8,126.2c2.2,0.7,12,3.8,13.2,4.2c-0.3,0.9-0.6,1.8-0.8,2.7c-6-1.7-7.6-2.2-13.3-3.8L21.8,126.2"/>
<path class="st4" d="M46.4,32.8c0.6,1.3,1.4,3,2,4.3c6.2-2.5,14.6-5.6,20.9-7.7l1.1,3.5c-15.1,5-15.1,5-22.6,8.5
	c-1.9-4-2.5-5.1-3.7-7.6L46.4,32.8"/>
<path class="st4" d="M78.9,22.8l0.1,0.6l-11.9,2.9c0.4,1.2,0.9,2.8,1.2,4C62,32.4,53.6,35.4,47.4,38c-0.6-1.3-1.4-3-2-4.3
	C61.8,27,62.4,26.7,78.9,22.8"/>
<polyline class="st4" points="48.1,32.3 48.5,33.1 46.2,34.1 45.8,33.3 48.1,32.3 "/>
<path class="st4" d="M78.8,22.4l0.2,0.8C61.2,27.5,60.9,27.6,45.5,34l-0.4-0.8C61.6,26.6,62.3,26.3,78.8,22.4"/>
<polyline class="st4" points="77.9,27.5 78.7,31 67.4,33.8 66.3,30.3 77.9,27.5 "/>
<path class="st4" d="M77.2,24c0.3,1.2,0.7,2.9,0.9,4.1l-11.6,2.8c-0.4-1.2-0.9-2.8-1.2-4L77.2,24"/>
<polyline class="st4" points="78.6,30.6 78.8,31.6 67.6,34.3 67.3,33.4 78.6,30.6 "/>
<path class="st4" d="M79.1,33c0.4,1.7,0.9,3.9,1.2,5.6l-10.6,2.6c-0.5-1.6-1.2-3.8-1.6-5.5L79.1,33"/>
<path class="st4" d="M14.2,239.5c8.1-7.7,10.6-10.2,12.6-12.2l6.8,6.2c-1.1,1.3-4.6,5.3-11.6,13L14.2,239.5"/>
<path class="st4" d="M11.4,236.6c8.3-7.4,10.9-9.8,13-11.7l3.2,3.3c-3.3,3.3-7.6,7.4-12.6,12.2L11.4,236.6"/>
<path class="st4" d="M10.1,236.5l0.2-0.2l3.7,3.8l1.6-1.6l7.7,7.1l-1.7,1.9C18.1,244.2,13.4,239.9,10.1,236.5"/>
<polyline class="st4" points="10.9,237 12.6,235.5 16.2,239.2 14.6,240.8 10.9,237 "/>
<path class="st4" d="M8.4,233.3c8.6-7.1,11.3-9.4,13.4-11.3l3.1,3.4c-3.5,3.2-7.8,7.1-13,11.7L8.4,233.3"/>
<polyline class="st4" points="7.9,233.7 8.1,233.6 11.7,237.5 11.5,237.7 7.9,233.7 "/>
<polyline class="st4" points="7.9,233.7 9.7,232.3 13.2,236.1 11.5,237.6 7.9,233.7 "/>
<path class="st4" d="M223.3,87.6l-1.2,0.8c-2.3-3.9-5.2-9.1-7.7-12.9l1.1-0.9C217.9,78.5,221.1,83.6,223.3,87.6"/>
<path class="st4" d="M232.2,108.2l-1.3,0.6c-2.8-7.1-6.9-16.5-10.2-23.4l1.2-0.8C225.2,91.5,229.3,101,232.2,108.2"/>
<path class="st4" d="M222.5,85.9l-2,1.2c3.3,6.8,7.3,16,10.1,23.1c-3.7,1.5-4.8,2-9.4,3.8c-5.3-13.6-8-20.4-16.5-33.5
	c4.5-3.3,6.1-4.5,10.1-7.5C217.1,76.9,220.3,82,222.5,85.9"/>
<path class="st4" d="M231.1,108.6l-2.1,0.9c-2.8-7-6.8-16.3-10.1-23.1l2-1.2C224.2,92.1,228.4,101.5,231.1,108.6"/>
<path class="st3" d="M89.5,225.5c1.1-7,1.9-12,3.7-23.2c7,0.8,7.3,0.9,13.6,0.7c0.7,11.6,0.8,13.9,1.4,23.4
	C101.9,226.8,95.6,226.5,89.5,225.5"/>
<path class="st3" d="M38.4,30.6c2.1,3.7,2.1,3.7,3.4,6.1C27.9,45,27.4,45.3,19.1,51.8c-1.5-1.8-2.9-3.6-4.4-5.4
	C28,36.5,28.8,35.9,38.4,30.6"/>
<path class="st3" d="M-27.1,127.2c-1.7-0.4-3.9-0.9-5.5-1.4c1.6-6.1,4-14.3,6-20.3c3.9,1.5,4.6,1.8,8.8,3.4
	c4.4-10.7,8.2-19.9,17.1-33c-1.4-1-3.3-2.3-4.7-3.3l3-4.2C13.2,80,17,82.8,23.3,87.5c-6.3,9.3-8,11.8-13.9,24.1
	c-6.6-2.9-10.5-4.6-23.1-10.2c-5,12.8-8,20.6-10.9,38.2l1,0.2l-1,8.8c-1.7-0.2-4-0.4-5.7-0.6C-29.4,141.7-28.3,133.4-27.1,127.2"/>
<path class="st3" d="M168.1,24.6c-0.6,1.7-0.7,1.8-1.9,5.1l-6.6-2.9c0.7-2.1,0.8-2.3,1.7-5.2L168.1,24.6 M121.4,18.8
	c-0.4,3.9-0.5,4.7-1,9.3c-7-0.8-16.4-1.4-23.5-1.6c-0.2-4.6-0.2-5.9-0.4-9.4C104,17.3,114,18,121.4,18.8 M83.2,23.1
	c0.2,1.2,0.4,2.9,0.5,4.2C83.6,26,83.4,24.3,83.2,23.1L83.2,23.1 M79.6,22.9c-0.9-6.3-1.4-9-2-12.6l5.6-0.6l0.1,0.6l-1.8,0.2
	c0.7,4.5,1.1,7.7,1.7,12.6l-5.7,0.7l-0.1-0.6L79.6,22.9"/>
<path class="st3" d="M88.7,10.6c0.4,2.9,0.5,3.6,0.9,7.4l12.3-0.6c0.2,3.5,0.2,4.8,0.4,9.4c-3.9,0.2-9.2,0.3-13.2,0.7
	C88.6,22.8,87.9,17,87,10.7L88.7,10.6"/>
<path class="st3" d="M101.4,10.7c0.2,3,0.2,3.7,0.4,7.4l-12.3,0.6c-0.4-3.6-0.5-4.3-0.9-7.4L101.4,10.7"/>
<path class="st3" d="M156.4,26.4l-0.8,2.3c-13.8-5.1-21.4-7.8-37.3-10.2l0.2-2.4C133.3,18.7,141.4,20.3,156.4,26.4"/>
<path class="st3" d="M155.9,36.8c1.9-4,3-6.4,4.9-10.6c23,13.1,35.7,22.4,55.1,46.5c-2.7,2.4-5.3,4.6-11,9.2
	C196,71.1,194.5,69.1,185,60.3l-0.4,0.5l-2-1.8l0.4-0.5c-12.2-9.7-17.3-13.7-34.5-22.2l1.1-2.7L155.9,36.8"/>
<path class="st3" d="M105.9,63.5c0.2-7.2,0.3-10.7,0.4-15.3c3.6,0.2,8.3,0.7,11.9,1c-1.1,8.6-1.9,14.9-2.9,22.9
	c3.6,0.6,8.5,1.6,12.1,2.4c-0.5,1.9-1,3.8-1.5,5.7c-10.6-2.7-14.9-2.8-24.4-3.1c0-1.8-0.1-10.3-0.2-13.7L105.9,63.5 M92.1,63.9
	c0.6,6.3,1.1,11.1,1.3,13.7L87,78.4c-0.3-1.8-1.4-8.4-2.3-13.6L92.1,63.9"/>
<path class="st3" d="M49.1,41.6c3.6,7,7.2,14,10.8,21.1c-11.6,6.4-12,6.7-21.1,13.6c-8.5-10.5-8.5-10.5-14.9-18.5
	C36.3,48.6,37.1,48.1,49.1,41.6"/>
<path class="st3" d="M25.9,56.4c6.2,7.7,6.2,7.7,14.9,18.5l-2.4,1.9c-8.6-10.1-8.6-10.1-15.3-18.1L25.9,56.4"/>
<path class="st3" d="M-14.1,193.8c-6.5,1.9-9.9,2.9-15.3,4.4l-2-6.7c3-0.7,4.3-1,8.5-2c-3.6-15.4-5.4-23.1-5.7-41.3
	c5.8,0.1,8.2,0.2,16,0.3l0.1-5.9c6.2,0.4,6.2,0.4,10.1,0.5c0,18.3,0.7,27.9,7.5,48.9c-3.5,1.2-6.8,2.4-17.7,6L-14.1,193.8"/>
<path class="st3" d="M203.7,215.9l-3.8-2.4c-2,2.8-4.5,6.5-6.6,9.2l3.6,2.7c-3.6,4.3-8.5,10-12.4,14c-7-6.9-7-6.9-10-9.9
	c8.8-9.4,12.8-13.6,20.6-26.5c4.1,2.3,8.2,4.6,12.3,6.9L203.7,215.9"/>
<path class="st3" d="M63.4,76.3c1.5,2.7,2.9,5.3,4.4,8L67,84.7l0.5,0.9c-8.9,5.4-9.1,5.5-16.9,12.1c-3.8-4.1-3.8-4.1-6.8-7.5
	C50.9,84.3,54.8,81,63.4,76.3"/>
<path class="st3" d="M-17.8,90.9c1,0.5,2.3,1.2,3.3,1.7c3-5.3,7-12.3,10.3-17.4c1.4,1,3.3,2.3,4.7,3.3c-7.6,12.1-11.5,18.2-17.1,33
	c-5.3-2-5.3-2-8.8-3.4C-23.2,102.9-20.2,96-17.8,90.9"/>
<path class="st3" d="M213.1,166.9c-3-0.3-9.3-0.9-20-1.9c0.8-11,1.2-16.5-0.5-28.7c4-0.6,11.6-1.8,19.8-3.3
	C213.8,146.1,214.5,152.6,213.1,166.9"/>
<path class="st3" d="M107.9,50c-0.1,5.8-0.3,9.8-0.4,15.3l-4.6-0.1c-0.1-7.2-0.2-11.3-0.2-15.3L107.9,50 M87.7,51L87.7,51l4.4-0.6
	c0.7,6.8,1.3,12.3,1.6,15.2l-7.4,1C85,59,84,53.4,83.7,51.6L87.7,51"/>
<path class="st3" d="M83.1,16.5l0.2,1.2C67.6,21,59.7,22.6,44.2,29.4l-0.5-1.2C58.1,22.5,66,19.4,83.1,16.5"/>
<path class="st3" d="M81.8,9.6c0.2,0.7,0.4,1.7,0.5,2.5c-16.4,3.4-24.6,5.1-40.7,12.1c-0.3-0.7-0.8-1.6-1.1-2.3
	C55.6,15.9,63.9,12.6,81.8,9.6"/>
<path class="st3" d="M28.4,167.6c1.1-0.2,2.5-0.6,3.6-0.8c0.8,3.9,1.9,7.7,3.3,11.3c-1,0.4-2.4,0.9-3.5,1.3
	C30.6,175.9,29.2,171.2,28.4,167.6"/>
<path class="st3" d="M42.4,99.3c2.1,1.8,4.2,3.6,6.3,5.5c-1.4,1.7-3.2,3.9-4.5,5.6c-3.9-2.9-3.9-2.9-6.7-4.9
	C39,103.5,40.9,101,42.4,99.3"/>
<path class="st3" d="M158.2,16.1c-0.1,0.5-0.3,1.1-0.4,1.6c-6.4-2.3-14.9-5.3-21.4-7.2c0.1-0.5,0.2-1.1,0.2-1.6
	C143.1,10.8,151.8,13.6,158.2,16.1"/>
<path class="st3" d="M242.2,197.5c-1.1-0.1-2.7-0.2-8.4-1.6c4.2-15.7,6.3-23.5,7.3-41.6c2.8-0.1,6.9-0.2,8.8-0.7
	C248.4,170.7,247.7,179.3,242.2,197.5"/>
<ellipse transform="matrix(0.2696 -0.963 0.963 0.2696 -67.8943 209.6148)" class="st5" cx="104.2" cy="149.6" rx="42.6" ry="42.6"/>
<path class="st6" d="M118.8,159.3c-5.3,8-16.1,10.2-24.1,4.9s-10.2-16.1-4.9-24.1"/>
<rect y="-0.9" class="st7" width="532.6" height="301.8"/>
<rect x="-706.9" y="-264" class="st8" width="124.8" height="153.6"/>
</svg>
