<?xml version="1.0" encoding="utf-8"?>
<!-- Generator: Adobe Illustrator 25.1.0, SVG Export Plug-In . SVG Version: 6.00 Build 0)  -->
<svg version="1.1" id="Слой_1" xmlns="http://www.w3.org/2000/svg" xmlns:xlink="http://www.w3.org/1999/xlink" x="0px" y="0px"
	 viewBox="0 0 169 169" style="enable-background:new 0 0 169 169;" xml:space="preserve">
<style type="text/css">
	.st0{fill-rule:evenodd;clip-rule:evenodd;fill:#FFD369;}
	.st1{fill-rule:evenodd;clip-rule:evenodd;fill:#EEEEEE;}
</style>
<g>
	<polygon class="st0" points="106.1,65 113,71.8 76.9,107 57,87.7 63.9,80.9 76.8,93.5 	"/>
	<path class="st0" d="M84.5,0.5c-46.4,0-84,37.6-84,84s37.6,84,84,84s84-37.6,84-84S130.9,0.5,84.5,0.5z M84.5,150
		C48.3,150,19,120.7,19,84.5S48.3,19,84.5,19S150,48.3,150,84.5S120.7,150,84.5,150z"/>
	<g>
		<polygon class="st1" points="113,71.8 76.9,107 57,87.7 63.9,80.9 76.8,93.5 106.1,65 		"/>
	</g>
	<polygon class="st0" points="113,71.8 76.9,107 57,87.7 63.9,80.9 76.8,93.5 106.1,65 	"/>
</g>
</svg>
