<?xml version="1.0" encoding="utf-8"?>
<!-- Generator: Adobe Illustrator 25.1.0, SVG Export Plug-In . SVG Version: 6.00 Build 0)  -->
<svg version="1.1" id="Слой_1" xmlns="http://www.w3.org/2000/svg" xmlns:xlink="http://www.w3.org/1999/xlink" x="0px" y="0px"
	 viewBox="0 0 380 180" style="enable-background:new 0 0 380 180;" xml:space="preserve">
<style type="text/css">
	.st0{fill:#EEEEEE;}
	.st1{fill:#FFD369;}
	.st2{fill:#393E46;}
</style>
<rect class="st0" width="380" height="180"/>
<g>
	<g>
		<path class="st1" d="M346,132.7H34c-1.7,0-3-1.3-3-3V17.1c0-1.7,1.3-3,3-3H346c1.7,0,3,1.3,3,3v112.6
			C349,131.4,347.6,132.7,346,132.7z"/>
	</g>
	<g>
		<g>
			<path class="st2" d="M217.2,108.8h-54.4c-1.7,0-3.1-1.4-3.1-3.1c0-1.7,1.4-3.1,3.1-3.1h54.4c1.7,0,3.1,1.4,3.1,3.1
				C220.3,107.4,218.9,108.8,217.2,108.8z"/>
		</g>
		<g>
			<g>
				
					<ellipse transform="matrix(0.1602 -0.9871 0.9871 0.1602 77.9823 199.3275)" class="st0" cx="156.1" cy="53.8" rx="20.8" ry="20.8"/>
			</g>
			<g>
				
					<ellipse transform="matrix(0.7071 -0.7071 0.7071 0.7071 7.6627 126.1699)" class="st2" cx="156.1" cy="53.8" rx="9.3" ry="9.3"/>
			</g>
			<g>
				
					<ellipse transform="matrix(0.7071 -0.7071 0.7071 0.7071 27.5022 174.0666)" class="st0" cx="223.9" cy="53.8" rx="20.8" ry="20.8"/>
			</g>
			<g>
				
					<ellipse transform="matrix(0.7071 -0.7071 0.7071 0.7071 27.5022 174.0666)" class="st2" cx="223.9" cy="53.8" rx="9.3" ry="9.3"/>
			</g>
		</g>
	</g>
</g>
</svg>
