<?xml version="1.0" encoding="utf-8"?>
<!-- Generator: Adobe Illustrator 25.1.0, SVG Export Plug-In . SVG Version: 6.00 Build 0)  -->
<svg version="1.1" id="Слой_1" xmlns="http://www.w3.org/2000/svg" xmlns:xlink="http://www.w3.org/1999/xlink" x="0px" y="0px"
	 viewBox="0 0 380 180" style="enable-background:new 0 0 380 180;" xml:space="preserve">
<style type="text/css">
	.st0{fill:#EEEEEE;}
	.st1{fill:#FFD369;}
	.st2{clip-path:url(#SVGID_2_);}
	.st3{fill:#393E46;}
</style>
<rect class="st0" width="380" height="180"/>
<g>
	<g>
		<path class="st1" d="M346,132.7H34c-1.7,0-3-1.3-3-3V17.1c0-1.7,1.3-3,3-3h312c1.7,0,3,1.3,3,3v112.6
			C349,131.4,347.6,132.7,346,132.7z"/>
	</g>
</g>
<g>
	<defs>
		<path id="SVGID_1_" d="M229.4,142.3h-78.8c-24,0-43.5-19.5-43.5-43.5V20c0-24,19.5-43.5,43.5-43.5h78.8c24,0,43.5,19.5,43.5,43.5
			v78.8C272.9,122.9,253.5,142.3,229.4,142.3z"/>
	</defs>
	<clipPath id="SVGID_2_">
		<use xlink:href="#SVGID_1_"  style="overflow:visible;"/>
	</clipPath>
	<g class="st2">
		<g>
			<ellipse class="st3" cx="154" cy="59.9" rx="7.2" ry="12.1"/>
		</g>
		<g>
			<ellipse class="st3" cx="226" cy="59.9" rx="7.2" ry="12.1"/>
		</g>
	</g>
	<g class="st2">
		<path class="st3" d="M238.4,36.1h-22.7c-9.5,0-17.2,7.5-17.5,17h-17c-0.3-9.4-8-17-17.5-17h-22.7c-9.7,0-17.5,7.8-17.5,17.5v12.5
			c0,9.7,7.8,17.5,17.5,17.5h22.7c9.7,0,17.5-7.8,17.5-17.5v-4.6h17v4.6c0,9.7,7.8,17.5,17.5,17.5h22.7c9.7,0,17.5-7.8,17.5-17.5
			V53.6C255.8,43.9,248,36.1,238.4,36.1z M176.6,66.1c0,6.9-5.6,12.5-12.5,12.5h-22.7c-6.9,0-12.5-5.6-12.5-12.5V53.6
			c0-6.9,5.6-12.5,12.5-12.5h22.7c6.8,0,12.2,5.3,12.5,12.1l0,8.4V66.1z M250.8,66.1c0,6.9-5.6,12.5-12.5,12.5h-22.7
			c-6.9,0-12.5-5.6-12.5-12.5V53.6c0-6.9,5.6-12.5,12.5-12.5h22.7c6.8,0,12.2,5.3,12.5,12.1l0,8.4V66.1z"/>
	</g>
	<g class="st2">
		<path class="st3" d="M127.7,41l-2.1-0.7c-1.5-0.5-3,0.3-3.7,1.7l-2.1,4.9c-0.7,1.6,0.1,3.3,1.7,4l2.1,0.8c1.5,0.6,3.2-0.1,3.9-1.7
			l2-5C130.2,43.3,129.4,41.5,127.7,41z"/>
	</g>
	<g class="st2">
		<path class="st3" d="M252.3,41l2.1-0.7c1.5-0.5,3,0.3,3.7,1.7l2.1,4.9c0.7,1.6-0.1,3.3-1.7,4l-2.1,0.8c-1.5,0.6-3.2-0.1-3.9-1.7
			l-2-5C249.8,43.3,250.6,41.5,252.3,41z"/>
	</g>
	<g class="st2">
		<polygon class="st3" points="123.8,43.3 86.9,25 86.9,33.2 121.8,48 		"/>
	</g>
	<g class="st2">
		<polygon class="st3" points="255.2,43.3 292.4,25.1 292.4,33.4 257.2,48 		"/>
	</g>
</g>
<g>
	<path class="st3" d="M206.1,101.7c0.1,0.1,0.1,0.3,0.2,0.4c2.2,8.8-14.6,12.2-20.2,10.9c-2.9-0.7-5.8-2-8.2-3.8
		c-0.9-0.7-6.9-7.2-3-7.6c0.6-0.1,1.1,0.2,1.7,0.6c3.8,2.3,6,6,10.7,6.8c5.1,0.9,10.5-1.2,13.8-5.2
		C202.1,102.5,204.7,98.8,206.1,101.7z"/>
</g>
</svg>
