<?xml version="1.0" encoding="utf-8"?>
<!-- Generator: Adobe Illustrator 25.1.0, SVG Export Plug-In . SVG Version: 6.00 Build 0)  -->
<svg version="1.1" id="Слой_1" xmlns="http://www.w3.org/2000/svg" xmlns:xlink="http://www.w3.org/1999/xlink" x="0px" y="0px"
	 viewBox="0 0 380 180" style="enable-background:new 0 0 380 180;" xml:space="preserve">
<style type="text/css">
	.st0{fill:#EEEEEE;}
	.st1{fill:#FFD369;}
	.st2{fill:#393E46;}
	.st3{display:none;}
	.st4{display:inline;fill:#393E46;}
</style>
<rect class="st0" width="380" height="180"/>
<g>
	<g>
		<path class="st1" d="M346,132.7H34c-1.7,0-3-1.3-3-3V17.1c0-1.7,1.3-3,3-3H346c1.7,0,3,1.3,3,3v112.6
			C349,131.4,347.6,132.7,346,132.7z"/>
	</g>
	<g>
		<g>
			<path class="st2" d="M228.1,37.1h-17.8c-7.4,0-13.5,5.9-13.7,13.3h-13.4C183,43,177,37.1,169.6,37.1h-17.8
				c-7.6,0-13.7,6.1-13.7,13.7v9.8c0,7.6,6.1,13.7,13.7,13.7h17.8c7.6,0,13.7-6.1,13.7-13.7V57h13.3v3.6c0,7.6,6.1,13.7,13.7,13.7
				h17.8c7.6,0,13.7-6.1,13.7-13.7v-9.8C241.8,43.2,235.7,37.1,228.1,37.1z"/>
		</g>
		<g>
			<path class="st2" d="M141.4,40.9l-1.6-0.5c-1.2-0.4-2.4,0.2-2.9,1.3l-1.6,3.8c-0.5,1.2,0.1,2.6,1.3,3.1l1.7,0.6
				c1.2,0.5,2.5-0.1,3-1.3l1.6-3.9C143.4,42.7,142.7,41.3,141.4,40.9z"/>
		</g>
		<g>
			<path class="st2" d="M239.1,40.9l1.6-0.5c1.2-0.4,2.4,0.2,2.9,1.3l1.6,3.8c0.5,1.2-0.1,2.6-1.3,3.1l-1.7,0.6
				c-1.2,0.5-2.5-0.1-3-1.3l-1.6-3.9C237.1,42.7,237.8,41.3,239.1,40.9z"/>
		</g>
		<g class="st3">
			<polygon class="st4" points="136.9,41.7 107.1,26.9 107.1,33.5 135.3,45.5 			"/>
		</g>
		<g class="st3">
			<polygon class="st4" points="242.9,41.7 272.9,27 272.9,33.7 244.5,45.5 			"/>
		</g>
		<g>
			<path class="st2" d="M172.6,99c2.6,0,5.1,0.2,7.6,0.2c8.9,0.1,17.9-0.1,26.7-1.4c4.8-0.8,10.5-1.5,14.7-4c2.7-1.6,5-3.7,7.5-5.5
				c1.4-1,4.5-3.6,6.4-2.3c0.6,0.4,0.6,1.3,0.4,2c-1.2,6.3-5.4,11.7-10,16.1c-4.1,4-8.8,7.3-14.4,9c-6.5,2-13.6,2.7-20.4,2.8
				c-7.4,0.1-15.6,0-22.3-3.5c-1.6-0.8-3.1-1.9-4.5-3.2c-1.2-1.1-2.1-2.7-2.5-4.3c-0.3-1.4-0.2-3,0.7-4.1c1-1.2,2.6-1.7,4.1-1.8
				C168.8,98.9,170.8,98.9,172.6,99z"/>
		</g>
	</g>
</g>
</svg>
