<?xml version="1.0" encoding="utf-8"?>
<!-- Generator: Adobe Illustrator 25.1.0, SVG Export Plug-In . SVG Version: 6.00 Build 0)  -->
<svg version="1.1" id="Слой_1" xmlns="http://www.w3.org/2000/svg" xmlns:xlink="http://www.w3.org/1999/xlink" x="0px" y="0px"
	 viewBox="0 0 380 180" style="enable-background:new 0 0 380 180;" xml:space="preserve">
<style type="text/css">
	.st0{fill:#EEEEEE;}
	.st1{fill:#FFD369;}
	.st2{fill:#393E46;}
</style>
<rect class="st0" width="380" height="180"/>
<g>
	<g>
		<path class="st1" d="M346,132.7H34c-1.7,0-3-1.3-3-3V17.1c0-1.7,1.3-3,3-3H346c1.7,0,3,1.3,3,3v112.6
			C349,131.4,347.6,132.7,346,132.7z"/>
	</g>
	<g>
		<g>
			<g>
				<ellipse class="st2" cx="154" cy="56.2" rx="7.2" ry="12.1"/>
			</g>
			<g>
				<ellipse class="st2" cx="226" cy="56.2" rx="7.2" ry="12.1"/>
			</g>
		</g>
		<g>
			<path class="st2" d="M214.7,83.7c6.5,0,10.7,6.9,7.8,12.7c-5.5,11-17.8,18.7-32.2,18.7s-26.7-7.7-32.2-18.7
				c-2.9-5.8,1.3-12.7,7.8-12.7H214.7z"/>
		</g>
	</g>
</g>
</svg>
