<?xml version="1.0" encoding="utf-8"?>
<!-- Generator: Adobe Illustrator 25.1.0, SVG Export Plug-In . SVG Version: 6.00 Build 0)  -->
<svg version="1.1" id="Слой_1" xmlns="http://www.w3.org/2000/svg" xmlns:xlink="http://www.w3.org/1999/xlink" x="0px" y="0px"
	 viewBox="0 0 380 180" style="enable-background:new 0 0 380 180;" xml:space="preserve">
<style type="text/css">
	.st0{fill:#EEEEEE;}
	.st1{fill:#FFD369;}
	.st2{fill:#393E46;}
</style>
<rect class="st0" width="380" height="180"/>
<g>
	<g>
		<path class="st1" d="M346,132.7H34c-1.7,0-3-1.3-3-3V17.1c0-1.7,1.3-3,3-3H346c1.7,0,3,1.3,3,3v112.6
			C349,131.4,347.6,132.7,346,132.7z"/>
	</g>
	<g>
		<g>
			<g>
				<path class="st2" d="M164.1,60c-0.1-3.3,2.5-6,5.7-6.1c3.3-0.1,6,2.5,6.1,5.7c0.1,3.3-2.5,6-5.7,6.1
					C166.9,65.8,164.2,63.2,164.1,60z"/>
			</g>
			<g>
				<path class="st2" d="M205.4,58.8c-0.1-3.3,2.5-6,5.7-6.1c3.3-0.1,6,2.5,6.1,5.7s-2.5,6-5.7,6.1C208.2,64.6,205.5,62,205.4,58.8z
					"/>
			</g>
		</g>
		<g>
			<g>
				<path class="st2" d="M198.2,77c0.8-0.6,1.7-1.1,2.5-1.5c4-1.7,6,2.7,7.8,4.8c1.3,1.5,2.5,3.4,1.8,5.6
					c-1.4,4.2-7.1,7.8-10.5,10.7c-3.4,3-6.7,6-10.1,9c-2.5,2.3-5.2,5.5-8.6,5.5c-1.4,0-2.4-1-3.2-2c-1.4-1.7-2.8-3.4-4.1-5.2
					c-1.3-1.7-1-3.7,0.8-5.9c1.1-1.4,2.6-2.6,4-3.8c4.1-3.3,8.1-6.8,12.1-10.3C192.8,82.1,195.4,79,198.2,77z"/>
			</g>
			<g>
				<path class="st2" d="M185.2,77c-0.8-0.6-1.7-1.1-2.5-1.5c-4-1.7-6,2.7-7.8,4.8c-1.3,1.5-2.5,3.4-1.8,5.6
					c1.4,4.2,7.1,7.8,10.5,10.7c3.4,3,6.7,6,10.1,9c2.5,2.3,5.2,5.5,8.6,5.5c1.4,0,2.4-1,3.2-2c1.4-1.7,2.8-3.4,4.1-5.2
					c1.3-1.7,1-3.7-0.7-5.9c-1.1-1.4-2.6-2.6-4-3.8c-4.1-3.3-8.1-6.8-12.1-10.3C190.6,82.1,188,79,185.2,77z"/>
			</g>
		</g>
		<g>
			<path class="st2" d="M176.4,50.9c0.4,0.2,0.9,0,1.2-0.4c0.6-1.1,1.1-2.3,1.2-3.6c0.2-1.4-16.1-5.8-17.8-6.2
				c-4-1-8.4-2.1-12.7-2.7c-1.1-0.1-1.4,1.5-0.4,1.8c4,1.3,8.1,2.4,11.9,3.8C165.5,45.9,171,48.3,176.4,50.9z"/>
		</g>
		<g>
			<path class="st2" d="M204.3,50.1c-0.4,0.2-0.9,0.1-1.2-0.3c-0.7-1.1-1.2-2.3-1.4-3.5c-0.3-1.3,15.7-6.7,17.4-7.2
				c3.9-1.2,8.3-2.6,12.5-3.4c1.1-0.2,1.5,1.4,0.5,1.8c-3.9,1.5-7.9,2.8-11.7,4.5C215,44.5,209.6,47.2,204.3,50.1z"/>
		</g>
	</g>
</g>
</svg>
