<?xml version="1.0" encoding="utf-8"?>
<!-- Generator: Adobe Illustrator 25.1.0, SVG Export Plug-In . SVG Version: 6.00 Build 0)  -->
<svg version="1.1" id="Слой_1" xmlns="http://www.w3.org/2000/svg" xmlns:xlink="http://www.w3.org/1999/xlink" x="0px" y="0px"
	 viewBox="0 0 380 180" style="enable-background:new 0 0 380 180;" xml:space="preserve">
<style type="text/css">
	.st0{fill:#EEEEEE;}
	.st1{fill:#FFD369;}
	.st2{display:none;}
	.st3{display:inline;}
	.st4{fill:#393E46;}
</style>
<rect class="st0" width="380" height="180"/>
<g>
	<g>
		<path class="st1" d="M346,132.7H34c-1.7,0-3-1.3-3-3V17.1c0-1.7,1.3-3,3-3h312c1.7,0,3,1.3,3,3v112.6
			C349,131.4,347.6,132.7,346,132.7z"/>
	</g>
	<g class="st2">
		<g class="st3">
			<g>
				<ellipse class="st4" cx="154" cy="56.7" rx="7.2" ry="12.1"/>
			</g>
			<g>
				<ellipse class="st4" cx="226" cy="56.7" rx="7.2" ry="12.1"/>
			</g>
		</g>
		<g class="st3">
			<path class="st0" d="M143.9,99.9c1,5.6,6,9.9,11.9,9.9h1.5v-9.9H143.9z"/>
			<path class="st0" d="M225.5,109.7c5.3-0.6,9.6-4.7,10.6-9.9h-10.6V109.7z"/>
			<path class="st0" d="M236.1,95.4c-0.9-5.3-5.2-9.5-10.6-10.1v10.1H236.1z"/>
			<rect x="209.6" y="85.3" class="st0" width="11.5" height="10.2"/>
			<rect x="161.8" y="85.3" class="st0" width="11.5" height="10.2"/>
			<rect x="177.7" y="85.3" class="st0" width="11.5" height="10.2"/>
			<rect x="193.7" y="85.3" class="st0" width="11.5" height="10.2"/>
			<path class="st0" d="M157.4,85.3h-1.5c-6,0-11,4.4-12,10.2h13.5V85.3z"/>
			<rect x="193.7" y="99.9" class="st0" width="11.5" height="9.9"/>
			<rect x="177.7" y="99.9" class="st0" width="11.5" height="9.9"/>
			<rect x="161.8" y="99.9" class="st0" width="11.5" height="9.9"/>
			<rect x="209.6" y="99.9" class="st0" width="11.5" height="9.9"/>
			<path class="st4" d="M224.2,80.8h-68.3c-9.2,0-16.6,7.4-16.6,16.6v0.2c0-1.2,1-2.2,2.2-2.2h0.2c1-7,7-12.4,14.2-12.4h1.7
				c0.4-0.7,1.1-1.3,2-1.3s1.6,0.5,2,1.3h12c0.4-0.7,1.1-1.3,2-1.3s1.6,0.5,2,1.3h12c0.4-0.7,1.1-1.3,2-1.3s1.6,0.5,2,1.3h12
				c0.4-0.7,1.1-1.3,2-1.3s1.6,0.5,2,1.3h12c0.4-0.7,1.1-1.3,2-1.3s1.7,0.5,2,1.3c6.7,0.6,12.2,5.8,13,12.4c0.9,0.3,1.6,1.1,1.6,2.1
				s-0.7,1.9-1.7,2.1c-1,6.5-6.2,11.5-12.8,12.2c-0.1,1.1-1,2-2.2,2c-1.1,0-2.1-0.9-2.2-2h-11.5c-0.1,1.1-1.1,2-2.2,2
				c-1.1,0-2.1-0.9-2.2-2h-11.5c-0.1,1.1-1.1,2-2.2,2c-1.1,0-2.1-0.9-2.2-2H178c-0.1,1.1-1.1,2-2.2,2c-1.1,0-2.1-0.9-2.2-2h-11.5
				c-0.1,1.1-1.1,2-2.2,2c-1.1,0-2.1-0.9-2.2-2h-1.5c-7.2,0-13.1-5.3-14.2-12.2h-0.2c-1.2,0-2.2-1-2.2-2.2c0,9.2,7.4,16.6,16.6,16.6
				h68.3c9.2,0,16.6-7.4,16.6-16.6v-0.2C240.7,88.3,233.3,80.8,224.2,80.8z"/>
			<path class="st4" d="M205.2,109.8h-11.5v2c0,0.1,0,0.2,0,0.2h11.5c0-0.1,0-0.2,0-0.2V109.8z"/>
			<path class="st4" d="M157.4,109.8h-1.5c-5.9,0-10.9-4.3-11.9-9.9h-2.2c1.1,6.9,7,12.2,14.2,12.2h1.5c0-0.1,0-0.2,0-0.2v-2.1
				H157.4z"/>
			<path class="st4" d="M209.6,85.3h11.5V84c0-0.3,0.1-0.7,0.2-1h-12c0.1,0.3,0.2,0.6,0.2,1v1.3H209.6z"/>
			<path class="st4" d="M189.2,109.8h-11.5v2c0,0.1,0,0.2,0,0.2h11.5c0-0.1,0-0.2,0-0.2V109.8z"/>
			<path class="st4" d="M155.8,85.3h1.5V84c0-0.3,0.1-0.7,0.2-1h-1.7c-7.3,0-13.2,5.4-14.2,12.4h2.2
				C144.8,89.7,149.8,85.3,155.8,85.3z"/>
			<path class="st4" d="M221.1,109.8h-11.5v2c0,0.1,0,0.2,0,0.2h11.5c0-0.1,0-0.2,0-0.2V109.8z"/>
			<path class="st4" d="M173.3,109.8h-11.5v2c0,0.1,0,0.2,0,0.2h11.5c0-0.1,0-0.2,0-0.2V109.8z"/>
			<path class="st4" d="M193.7,85.3h11.5V84c0-0.3,0.1-0.7,0.2-1h-12c0.1,0.3,0.2,0.6,0.2,1v1.3H193.7z"/>
			<path class="st4" d="M177.7,85.3h11.5V84c0-0.3,0.1-0.7,0.2-1h-12c0.1,0.3,0.2,0.6,0.2,1v1.3H177.7z"/>
			<path class="st4" d="M225.5,85.4c5.4,0.6,9.7,4.8,10.6,10.1h1.7c0.2,0,0.4,0,0.6,0.1c-0.9-6.6-6.3-11.9-13-12.4
				c0.1,0.3,0.2,0.6,0.2,0.9v1.3H225.5z"/>
			<path class="st4" d="M161.8,85.3h11.5V84c0-0.3,0.1-0.7,0.2-1h-12c0.1,0.3,0.2,0.6,0.2,1v1.3H161.8z"/>
			<path class="st4" d="M236.1,99.9c-1,5.2-5.2,9.2-10.6,9.9v2.1c0,0.1,0,0.1,0,0.2c6.6-0.6,11.9-5.7,12.8-12.2
				c-0.2,0-0.4,0.1-0.5,0.1L236.1,99.9L236.1,99.9z"/>
			<rect x="177.7" y="97.7" class="st4" width="11.5" height="2.2"/>
			<rect x="209.6" y="95.4" class="st4" width="11.5" height="2.2"/>
			<rect x="193.7" y="95.4" class="st4" width="11.5" height="2.2"/>
			<rect x="193.7" y="97.7" class="st4" width="11.5" height="2.2"/>
			<path class="st4" d="M225.5,97.7h10.8l0,0v-0.2c0-0.7-0.1-1.3-0.2-2h-10.6V97.7z"/>
			<rect x="177.7" y="95.4" class="st4" width="11.5" height="2.2"/>
			<path class="st4" d="M225.5,99.9h10.9c0.1-1.1,0.2-2.2,0.2-3.3h-11.1L225.5,99.9L225.5,99.9z"/>
			<rect x="209.6" y="97.7" class="st4" width="11.5" height="2.2"/>
			<rect x="161.8" y="95.4" class="st4" width="11.5" height="2.2"/>
			<path class="st4" d="M157.4,95.4h-13.5c-0.1,0.7-0.2,1.3-0.2,2v0.2l0,0h13.7V95.4z"/>
			<rect x="161.8" y="97.7" class="st4" width="11.5" height="2.2"/>
			<path class="st4" d="M157.4,99.9v-2.2h-13.7c0,0.8,0.1,1.5,0.2,2.2H157.4z"/>
			<path class="st4" d="M238.5,97.7c0,0.7-0.1,1.4-0.2,2.1c1-0.2,1.7-1.1,1.7-2.1s-0.7-1.9-1.6-2.1c0.1,0.6,0.1,1.3,0.1,1.9V97.7z"
				/>
			<path class="st4" d="M141.5,99.9h0.2c-0.1-0.7-0.2-1.5-0.2-2.2v-0.2c0-0.7,0.1-1.3,0.2-2h-0.2c-1.2,0-2.2,1-2.2,2.2
				S140.2,99.9,141.5,99.9z"/>
			<path class="st4" d="M236.1,95.4c0.1,0.7,0.2,1.3,0.2,2v0.2l0,0h1.5h-1.5c0,0.8-0.1,1.5-0.2,2.2h1.7c0.2,0,0.4,0,0.5-0.1
				c0.1-0.7,0.2-1.4,0.2-2.1v-0.2c0-0.7-0.1-1.3-0.1-1.9c-0.2-0.1-0.4-0.1-0.6-0.1H236.1z"/>
			<path class="st4" d="M141.5,97.7h2.2l0,0v-0.2c0-0.7,0.1-1.3,0.2-2h-2.2c-0.1,0.7-0.2,1.3-0.2,2V97.7z"/>
			<path class="st4" d="M143.7,97.7h-2.2c0,0.8,0.1,1.5,0.2,2.2h2.2C143.8,99.2,143.7,98.4,143.7,97.7z"/>
			<rect x="157.4" y="85.3" class="st4" width="2.2" height="10.2"/>
			<rect x="157.4" y="99.9" class="st4" width="2.2" height="9.9"/>
			<rect x="159.6" y="85.3" class="st4" width="2.2" height="10.2"/>
			<rect x="159.6" y="99.9" class="st4" width="2.2" height="9.9"/>
			<path class="st4" d="M159.6,114c1.1,0,2.1-0.9,2.2-2h-4.4C157.5,113.2,158.4,114,159.6,114z"/>
			<path class="st4" d="M159.6,81.8c-0.9,0-1.6,0.5-2,1.3h4C161.2,82.3,160.5,81.8,159.6,81.8z"/>
			<path class="st4" d="M161.8,109.8h-2.2v2v-2h-2.2v2c0,0.1,0,0.2,0,0.2h4.4c0-0.1,0-0.2,0-0.2V109.8z"/>
			<path class="st4" d="M157.4,85.3h2.2V84v1.3h2.2V84c0-0.3-0.1-0.7-0.2-1h-4c-0.1,0.3-0.2,0.6-0.2,1V85.3z"/>
			<rect x="157.4" y="97.7" class="st4" width="2.2" height="2.2"/>
			<rect x="157.4" y="95.4" class="st4" width="2.2" height="2.2"/>
			<rect x="159.6" y="95.4" class="st4" width="2.2" height="2.2"/>
			<rect x="159.6" y="97.7" class="st4" width="2.2" height="2.2"/>
			<rect x="175.5" y="99.9" class="st4" width="2.2" height="9.9"/>
			<rect x="175.5" y="85.3" class="st4" width="2.2" height="10.2"/>
			<rect x="173.3" y="85.3" class="st4" width="2.2" height="10.2"/>
			<rect x="173.3" y="99.9" class="st4" width="2.2" height="9.9"/>
			<path class="st4" d="M175.5,81.8c-0.9,0-1.6,0.5-2,1.3h4C177.1,82.3,176.4,81.8,175.5,81.8z"/>
			<path class="st4" d="M175.5,114c1.1,0,2.1-0.9,2.2-2h-4.4C173.4,113.2,174.4,114,175.5,114z"/>
			<path class="st4" d="M177.7,109.8h-2.2v2v-2h-2.2v2c0,0.1,0,0.2,0,0.2h4.4c0-0.1,0-0.2,0-0.2V109.8z"/>
			<path class="st4" d="M173.3,85.3h2.2V84v1.3h2.2V84c0-0.3-0.1-0.7-0.2-1h-4c-0.1,0.3-0.2,0.6-0.2,1V85.3z"/>
			<rect x="173.3" y="95.4" class="st4" width="2.2" height="2.2"/>
			<rect x="173.3" y="97.7" class="st4" width="2.2" height="2.2"/>
			<rect x="175.5" y="95.4" class="st4" width="2.2" height="2.2"/>
			<rect x="175.5" y="97.7" class="st4" width="2.2" height="2.2"/>
			<rect x="191.4" y="85.3" class="st4" width="2.2" height="10.2"/>
			<rect x="189.2" y="99.9" class="st4" width="2.2" height="9.9"/>
			<rect x="189.2" y="85.3" class="st4" width="2.2" height="10.2"/>
			<rect x="191.4" y="99.9" class="st4" width="2.2" height="9.9"/>
			<path class="st4" d="M191.4,114c1.1,0,2.1-0.9,2.2-2h-4.4C189.4,113.2,190.3,114,191.4,114z"/>
			<path class="st4" d="M191.4,81.8c-0.9,0-1.6,0.5-2,1.3h4C193.1,82.3,192.3,81.8,191.4,81.8z"/>
			<path class="st4" d="M193.7,109.8h-2.2v2v-2h-2.2v2c0,0.1,0,0.2,0,0.2h4.4c0-0.1,0-0.2,0-0.2V109.8z"/>
			<path class="st4" d="M189.2,85.3h2.2V84v1.3h2.2V84c0-0.3-0.1-0.7-0.2-1h-4c-0.1,0.3-0.2,0.6-0.2,1V85.3z"/>
			<rect x="191.4" y="97.7" class="st4" width="2.2" height="2.2"/>
			<rect x="189.2" y="97.7" class="st4" width="2.2" height="2.2"/>
			<rect x="191.4" y="95.4" class="st4" width="2.2" height="2.2"/>
			<rect x="189.2" y="95.4" class="st4" width="2.2" height="2.2"/>
			<rect x="205.2" y="99.9" class="st4" width="2.2" height="9.9"/>
			<rect x="207.4" y="99.9" class="st4" width="2.2" height="9.9"/>
			<rect x="207.4" y="85.3" class="st4" width="2.2" height="10.2"/>
			<rect x="205.2" y="85.3" class="st4" width="2.2" height="10.2"/>
			<path class="st4" d="M207.4,114c1.1,0,2.1-0.9,2.2-2h-4.4C205.3,113.2,206.2,114,207.4,114z"/>
			<path class="st4" d="M207.4,81.8c-0.9,0-1.6,0.5-2,1.3h4C209,82.3,208.3,81.8,207.4,81.8z"/>
			<path class="st4" d="M209.6,109.8h-2.2v2v-2h-2.2v2c0,0.1,0,0.2,0,0.2h4.4c0-0.1,0-0.2,0-0.2V109.8z"/>
			<path class="st4" d="M205.2,85.3h2.2V84v1.3h2.2V84c0-0.3-0.1-0.7-0.2-1h-4c-0.1,0.3-0.2,0.6-0.2,1V85.3z"/>
			<rect x="205.2" y="97.7" class="st4" width="2.2" height="2.2"/>
			<rect x="207.4" y="95.4" class="st4" width="2.2" height="2.2"/>
			<rect x="207.4" y="97.7" class="st4" width="2.2" height="2.2"/>
			<rect x="205.2" y="95.4" class="st4" width="2.2" height="2.2"/>
			<rect x="221.1" y="85.3" class="st4" width="2.2" height="10.2"/>
			<path class="st4" d="M223.3,99.9v9.9h0.8c0.5,0,0.9,0,1.4-0.1v-9.9L223.3,99.9L223.3,99.9z"/>
			<rect x="221.1" y="99.9" class="st4" width="2.2" height="9.9"/>
			<path class="st4" d="M225.5,95.4v-10c-0.5-0.1-0.9-0.1-1.4-0.1h-0.8v10.2L225.5,95.4L225.5,95.4z"/>
			<path class="st4" d="M225.3,83.1c-0.3-0.8-1.1-1.3-2-1.3s-1.6,0.5-2,1.3h2.8C224.6,83.1,224.9,83.1,225.3,83.1z"/>
			<path class="st4" d="M221.1,112c0.1,1.1,1.1,2,2.2,2c1.2,0,2.1-0.9,2.2-2c-0.5,0-0.9,0.1-1.4,0.1L221.1,112L221.1,112z"/>
			<path class="st4" d="M225.5,109.7c-0.5,0.1-0.9,0.1-1.4,0.1h-0.8v2v-2h-2.2v2c0,0.1,0,0.2,0,0.2h3c0.5,0,0.9,0,1.4-0.1
				c0-0.1,0-0.1,0-0.2V109.7z"/>
			<path class="st4" d="M221.1,85.3h2.2V84v1.3h0.8c0.5,0,0.9,0,1.4,0.1V84c0-0.3-0.1-0.6-0.2-0.9c-0.4,0-0.8-0.1-1.2-0.1h-2.8
				c-0.1,0.3-0.2,0.6-0.2,1V85.3z"/>
			<rect x="223.3" y="97.7" class="st4" width="2.2" height="2.2"/>
			<rect x="221.1" y="97.7" class="st4" width="2.2" height="2.2"/>
			<rect x="223.3" y="95.4" class="st4" width="2.2" height="2.2"/>
			<rect x="221.1" y="95.4" class="st4" width="2.2" height="2.2"/>
		</g>
	</g>
</g>
<g>
	<g>
		<g>
			<g>
				<ellipse class="st4" cx="154" cy="56.8" rx="7.2" ry="12.1"/>
			</g>
			<g>
				<ellipse class="st4" cx="225.9" cy="56.8" rx="7.2" ry="12.1"/>
			</g>
		</g>
		<g>
			<path class="st0" d="M143.9,99.9c1,5.6,6,9.9,11.9,9.9h1.5v-9.9H143.9z"/>
			<path class="st0" d="M225.5,109.8c5.3-0.6,9.6-4.7,10.6-9.9h-10.6V109.8z"/>
			<path class="st0" d="M236.1,95.5c-0.9-5.3-5.2-9.5-10.6-10.1v10.1H236.1z"/>
			<rect x="209.6" y="85.3" class="st0" width="11.5" height="10.2"/>
			<rect x="161.8" y="85.3" class="st0" width="11.5" height="10.2"/>
			<rect x="177.7" y="85.3" class="st0" width="11.5" height="10.2"/>
			<rect x="193.6" y="85.3" class="st0" width="11.5" height="10.2"/>
			<path class="st0" d="M157.3,85.3h-1.5c-6,0-11,4.4-12,10.2h13.5V85.3z"/>
			<rect x="193.6" y="99.9" class="st0" width="11.5" height="9.9"/>
			<rect x="177.7" y="99.9" class="st0" width="11.5" height="9.9"/>
			<rect x="161.8" y="99.9" class="st0" width="11.5" height="9.9"/>
			<rect x="209.6" y="99.9" class="st0" width="11.5" height="9.9"/>
			<path class="st4" d="M224.1,80.9h-68.3c-9.2,0-16.6,7.4-16.6,16.6v0.2c0,9.2,7.4,16.6,16.6,16.6h68.3c9.2,0,16.6-7.4,16.6-16.6
				v-0.2C240.7,88.3,233.3,80.9,224.1,80.9z M155.8,109.9c-5.9,0-10.9-4.3-11.9-9.9h13.5v9.9H155.8z M236.1,95.5h-10.6V85.4
				C230.9,86,235.2,90.2,236.1,95.5z M221.1,85.3v10.2h-11.5V85.3H221.1z M205.1,85.3v10.2h-11.5V85.3H205.1z M189.2,85.3v10.2
				h-11.5V85.3H189.2z M173.3,85.3v10.2h-11.5V85.3H173.3z M157.3,85.3v10.2h-13.5c1-5.8,6-10.2,12-10.2H157.3z M161.8,109.9v-9.9
				h11.5v9.9H161.8z M177.7,109.9v-9.9h11.5v9.9H177.7z M193.6,109.9v-9.9h11.5v9.9H193.6z M209.6,109.9v-9.9h11.5v9.9H209.6z
				 M225.5,109.8v-9.9v0h10.6c0,0,0,0,0,0C235.1,105.1,230.8,109.2,225.5,109.8z"/>
		</g>
	</g>
</g>
</svg>
